<?xml version="1.0" encoding="UTF-8"?>
<svg xmlns="http://www.w3.org/2000/svg" width="420mm" height="297mm" viewBox="0 0 420000 297000">
<title>Tematik harita</title>
<rect width="420000" height="297000" fill="#ffffff"/>
<rect x="10000" y="10000" width="400000" height="277000" fill="none" stroke="#000000" stroke-width="350"/>
<text x="16000" y="22000" font-family="Barlow, sans-serif" font-size="7000" font-weight="600" fill="#000000" xml:space="preserve">Kızılay ve çevresi: arazi kullanımı</text>
<text x="16000" y="31400" font-family="Barlow, sans-serif" font-size="3400" font-weight="400" fill="#4a4a4a" xml:space="preserve">Parsel bazında mevcut kullanım, 2026</text>
<rect x="22500" y="44500" width="271000" height="230000" fill="#ececec"/>
<text x="158000" y="163500" font-family="Barlow, sans-serif" font-size="12000" fill="#a0a0a0" text-anchor="middle">harita</text>
<clipPath id="k1"><rect x="22500" y="44500" width="271000" height="230000"/></clipPath><g clip-path="url(#k1)">
<path d="M28000 274500L28000 273000M28000 44500L28000 46000M128000 274500L128000 273000M128000 44500L128000 46000M228000 274500L228000 273000M228000 44500L228000 46000M22500 223500L24000 223500M293500 223500L292000 223500M22500 123500L24000 123500M293500 123500L292000 123500" fill="none" stroke="#333333" stroke-width="180"/>
</g>
<path d="M22500 43000L28000 43000L28000 44500L22500 44500ZM128000 43000L228000 43000L228000 44500L128000 44500ZM293500 44500L295000 44500L295000 123500L293500 123500ZM293500 223500L295000 223500L295000 274500L293500 274500ZM22500 274500L28000 274500L28000 276000L22500 276000ZM128000 274500L228000 274500L228000 276000L128000 276000ZM21000 44500L22500 44500L22500 123500L21000 123500ZM21000 223500L22500 223500L22500 274500L21000 274500ZM21000 43000L22500 43000L22500 44500L21000 44500ZM293500 43000L295000 43000L295000 44500L293500 44500ZM293500 274500L295000 274500L295000 276000L293500 276000ZM21000 274500L22500 274500L22500 276000L21000 276000Z" fill="#333333"/>
<rect x="21000" y="43000" width="274000" height="233000" fill="none" stroke="#333333" stroke-width="180"/>
<rect x="22500" y="44500" width="271000" height="230000" fill="none" stroke="#333333" stroke-width="180"/>
<text x="24298" y="41660" font-family="Barlow, sans-serif" font-size="1700" font-weight="500" fill="#333333" xml:space="preserve">Y=486500</text>
<text x="124298" y="41660" font-family="Barlow, sans-serif" font-size="1700" font-weight="500" fill="#333333" xml:space="preserve">Y=487000</text>
<text x="224334" y="41660" font-family="Barlow, sans-serif" font-size="1700" font-weight="500" fill="#333333" xml:space="preserve">Y=487500</text>
<text x="297190" y="127594" font-family="Barlow, sans-serif" font-size="1700" font-weight="500" fill="#333333" transform="rotate(270 297190 127594)" xml:space="preserve">X=4418000</text>
<text x="297190" y="227518" font-family="Barlow, sans-serif" font-size="1700" font-weight="500" fill="#333333" transform="rotate(270 297190 227518)" xml:space="preserve">X=4417500</text>
<text x="24298" y="278190" font-family="Barlow, sans-serif" font-size="1700" font-weight="500" fill="#333333" xml:space="preserve">Y=486500</text>
<text x="124298" y="278190" font-family="Barlow, sans-serif" font-size="1700" font-weight="500" fill="#333333" xml:space="preserve">Y=487000</text>
<text x="224334" y="278190" font-family="Barlow, sans-serif" font-size="1700" font-weight="500" fill="#333333" xml:space="preserve">Y=487500</text>
<text x="19660" y="127594" font-family="Barlow, sans-serif" font-size="1700" font-weight="500" fill="#333333" transform="rotate(270 19660 127594)" xml:space="preserve">X=4418000</text>
<text x="19660" y="227518" font-family="Barlow, sans-serif" font-size="1700" font-weight="500" fill="#333333" transform="rotate(270 19660 227518)" xml:space="preserve">X=4417500</text>
<rect x="306000" y="38000" width="98000" height="72000" fill="#ececec"/>
<text x="355000" y="76000" font-family="Barlow, sans-serif" font-size="6000" fill="#a0a0a0" text-anchor="middle">harita</text>
<clipPath id="k2"><rect x="306000" y="38000" width="98000" height="72000"/></clipPath><g clip-path="url(#k2)">
<path d="M341450 62500L368550 62500L368550 85500L341450 85500Z" fill="none" stroke="#d0021b" stroke-width="600"/>
</g>
<rect x="306000" y="38000" width="98000" height="72000" fill="none" stroke="#000000" stroke-width="350"/>
<text x="306000" y="119510" font-family="Barlow, sans-serif" font-size="3600" font-weight="600" fill="#000000" xml:space="preserve">Lejant</text>
<text x="306000" y="124480" font-family="Barlow, sans-serif" font-size="2400" font-weight="600" fill="#333333" xml:space="preserve">Arazi kullanımı</text>
<rect x="306000" y="126100" width="7000" height="4500" fill="#f3d9a4"/>
<rect x="306000" y="126100" width="7000" height="4500" fill="none" stroke="#3c3c3c" stroke-width="180"/>
<text x="315000" y="129269" font-family="Barlow, sans-serif" font-size="2300" font-weight="400" fill="#000000" xml:space="preserve">Konut</text>
<rect x="306000" y="131800" width="7000" height="4500" fill="#e9a3a0"/>
<rect x="306000" y="131800" width="7000" height="4500" fill="none" stroke="#3c3c3c" stroke-width="180"/>
<text x="315000" y="134969" font-family="Barlow, sans-serif" font-size="2300" font-weight="400" fill="#000000" xml:space="preserve">Ticaret</text>
<rect x="306000" y="137500" width="7000" height="4500" fill="#f0bc8c"/>
<rect x="306000" y="137500" width="7000" height="4500" fill="none" stroke="#3c3c3c" stroke-width="180"/>
<text x="315000" y="140669" font-family="Barlow, sans-serif" font-size="2300" font-weight="400" fill="#000000" xml:space="preserve">Konut + ticaret</text>
<rect x="306000" y="143200" width="7000" height="4500" fill="#a9c9ea"/>
<rect x="306000" y="143200" width="7000" height="4500" fill="none" stroke="#3c3c3c" stroke-width="180"/>
<text x="315000" y="146369" font-family="Barlow, sans-serif" font-size="2300" font-weight="400" fill="#000000" xml:space="preserve">Eğitim</text>
<rect x="306000" y="148900" width="7000" height="4500" fill="#b8dca2"/>
<rect x="306000" y="148900" width="7000" height="4500" fill="none" stroke="#3c3c3c" stroke-width="180"/>
<text x="315000" y="152069" font-family="Barlow, sans-serif" font-size="2300" font-weight="400" fill="#000000" xml:space="preserve">Park ve yeşil alan</text>
<rect x="306000" y="154600" width="7000" height="4500" fill="#c9b3dd"/>
<rect x="306000" y="154600" width="7000" height="4500" fill="none" stroke="#3c3c3c" stroke-width="180"/>
<text x="315000" y="157769" font-family="Barlow, sans-serif" font-size="2300" font-weight="400" fill="#000000" xml:space="preserve">Sağlık</text>
<text x="306000" y="163440" font-family="Barlow, sans-serif" font-size="2400" font-weight="600" fill="#333333" xml:space="preserve">Kadastro</text>
<path d="M306000 167310L313000 167310" fill="none" stroke="#1f1f1f" stroke-width="250"/>
<text x="315000" y="168229" font-family="Barlow, sans-serif" font-size="2300" font-weight="400" fill="#000000" xml:space="preserve">Parsel sınırı</text>
<rect x="306000" y="170760" width="7000" height="4500" fill="#9a9a9a"/>
<rect x="306000" y="170760" width="7000" height="4500" fill="none" stroke="#3c3c3c" stroke-width="180"/>
<text x="315000" y="173929" font-family="Barlow, sans-serif" font-size="2300" font-weight="400" fill="#000000" xml:space="preserve">Bina</text>
<text x="306000" y="179600" font-family="Barlow, sans-serif" font-size="2400" font-weight="600" fill="#333333" xml:space="preserve">Ulaşım</text>
<rect x="306000" y="181220" width="7000" height="4500" fill="#ffffff"/>
<rect x="306000" y="181220" width="7000" height="4500" fill="none" stroke="#3c3c3c" stroke-width="180"/>
<text x="315000" y="184389" font-family="Barlow, sans-serif" font-size="2300" font-weight="400" fill="#000000" xml:space="preserve">Yol</text>
<path d="M309500 187870L310800 190470L308200 190470Z" fill="none" stroke="#1f1f1f" stroke-width="200"/>
<text x="315000" y="190089" font-family="Barlow, sans-serif" font-size="2300" font-weight="400" fill="#000000" xml:space="preserve">Poligon noktası</text>
<path d="M326263 246500A7263 7263 0 0 1 311737 246500A7263 7263 0 0 1 326263 246500Z" fill="none" stroke="#000000" stroke-width="252"/>
<path d="M319017 236412L320143 245361L319000 246500Z" fill="#000000" stroke="#000000" stroke-width="252"/>
<path d="M319017 236412L317861 245357L319000 246500Z" fill="none" stroke="#000000" stroke-width="252"/>
<path d="M329088 246517L320139 247643L319000 246500L320143 245361Z" fill="none" stroke="#000000" stroke-width="252"/>
<path d="M318983 256588L317857 247639L319000 246500L320139 247643Z" fill="none" stroke="#000000" stroke-width="252"/>
<path d="M308912 246483L317861 245357L319000 246500L317857 247639Z" fill="none" stroke="#000000" stroke-width="252"/>
<text x="318214" y="235684" font-family="Barlow, sans-serif" font-size="2600" font-weight="600" fill="#000000" xml:space="preserve">K</text>
<text x="329922" y="247430" font-family="Barlow, sans-serif" font-size="2600" font-weight="400" fill="#000000" xml:space="preserve">D</text>
<text x="318183" y="259136" font-family="Barlow, sans-serif" font-size="2600" font-weight="400" fill="#000000" xml:space="preserve">G</text>
<text x="306466" y="247390" font-family="Barlow, sans-serif" font-size="2600" font-weight="400" fill="#000000" xml:space="preserve">B</text>
<rect x="348932" y="246350" width="10000" height="1300" fill="#000000"/>
<rect x="358932" y="246350" width="10000" height="1300" fill="#ffffff"/>
<rect x="368932" y="246350" width="10000" height="1300" fill="#000000"/>
<rect x="378932" y="246350" width="10000" height="1300" fill="#ffffff"/>
<rect x="348932" y="246350" width="40000" height="1300" fill="none" stroke="#000000" stroke-width="250"/>
<text x="348366" y="245150" font-family="Barlow, sans-serif" font-size="2000" font-weight="500" fill="#000000" xml:space="preserve">0</text>
<text x="357843" y="245150" font-family="Barlow, sans-serif" font-size="2000" font-weight="500" fill="#000000" xml:space="preserve">50</text>
<text x="367448" y="245150" font-family="Barlow, sans-serif" font-size="2000" font-weight="500" fill="#000000" xml:space="preserve">100</text>
<text x="377491" y="245150" font-family="Barlow, sans-serif" font-size="2000" font-weight="500" fill="#000000" xml:space="preserve">150</text>
<text x="386230" y="245150" font-family="Barlow, sans-serif" font-size="2000" font-weight="500" fill="#000000" xml:space="preserve">200 m</text>
<text x="363302" y="250450" font-family="Barlow, sans-serif" font-size="2000" font-weight="500" fill="#000000" xml:space="preserve">Ölçek 1/5000</text>
<text x="306000" y="275300" font-family="Barlow, sans-serif" font-size="2000" font-weight="400" fill="#4a4a4a" xml:space="preserve">Kaynak: Çankaya Belediyesi CBS, 2026</text>
<text x="306000" y="277900" font-family="Barlow, sans-serif" font-size="2000" font-weight="400" fill="#4a4a4a" xml:space="preserve">Koordinat sistemi: TUREF / TM33</text>
<text x="306000" y="280500" font-family="Barlow, sans-serif" font-size="2000" font-weight="400" fill="#4a4a4a" xml:space="preserve">Hazırlayan: M. Demir, 2026-10-02</text>
</svg>
