  0
SECTION
  2
HEADER
  9
$ACADVER
  1
AC1021
  9
$ACADMAINTVER
 70
25
  9
$DWGCODEPAGE
  3
ANSI_1254
  9
$INSBASE
 10
0.0
 20
0.0
 30
0.0
  9
$EXTMIN
 10
452275.0
 20
4412288.964585
 30
0.0
  9
$EXTMAX
 10
452475.5613956954
 20
4412345.0
 30
0.0
  9
$LIMMIN
 10
452275.0
 20
4412288.964585
  9
$LIMMAX
 10
452475.5613956954
 20
4412345.0
  9
$LTSCALE
 40
1.0
  9
$TEXTSTYLE
  7
Standard
  9
$CLAYER
  8
0
  9
$CELTYPE
  6
ByLayer
  9
$CECOLOR
 62
256
  9
$CELTSCALE
 40
1.0
  9
$DIMSTYLE
  2
Standard
  9
$LUNITS
 70
2
  9
$LUPREC
 70
3
  9
$AUNITS
 70
2
  9
$AUPREC
 70
4
  9
$ANGBASE
 50
0.0
  9
$ANGDIR
 70
0
  9
$PDMODE
 70
0
  9
$PDSIZE
 40
0.0
  9
$HANDSEED
  5
74
  9
$TILEMODE
 70
1
  9
$MEASUREMENT
 70
1
  9
$CELWEIGHT
370
-1
  9
$LWDISPLAY
290
0
  9
$INSUNITS
 70
6
  9
$PSTYLEMODE
290
1
  9
$EXTNAMES
290
1
  0
ENDSEC
  0
SECTION
  2
CLASSES
  0
CLASS
  1
ACDBDICTIONARYWDFLT
  2
AcDbDictionaryWithDefault
  3
ObjectDBX Classes
 90
0
 91
0
280
0
281
0
  0
CLASS
  1
SUN
  2
AcDbSun
  3
SCENEOE
 90
1153
 91
0
280
0
281
0
  0
CLASS
  1
VISUALSTYLE
  2
AcDbVisualStyle
  3
ObjectDBX Classes
 90
4095
 91
0
280
0
281
0
  0
CLASS
  1
MATERIAL
  2
AcDbMaterial
  3
ObjectDBX Classes
 90
1153
 91
0
280
0
281
0
  0
CLASS
  1
SCALE
  2
AcDbScale
  3
ObjectDBX Classes
 90
1153
 91
0
280
0
281
0
  0
CLASS
  1
TABLESTYLE
  2
AcDbTableStyle
  3
ObjectDBX Classes
 90
4095
 91
0
280
0
281
0
  0
CLASS
  1
MLEADERSTYLE
  2
AcDbMLeaderStyle
  3
ACDB_MLEADERSTYLE_CLASS
 90
4095
 91
0
280
0
281
0
  0
CLASS
  1
DICTIONARYVAR
  2
AcDbDictionaryVar
  3
ObjectDBX Classes
 90
0
 91
0
280
0
281
0
  0
CLASS
  1
CELLSTYLEMAP
  2
AcDbCellStyleMap
  3
ObjectDBX Classes
 90
1152
 91
0
280
0
281
0
  0
CLASS
  1
MENTALRAYRENDERSETTINGS
  2
AcDbMentalRayRenderSettings
  3
SCENEOE
 90
1024
 91
0
280
0
281
0
  0
CLASS
  1
ACDBDETAILVIEWSTYLE
  2
AcDbDetailViewStyle
  3
ObjectDBX Classes
 90
1025
 91
0
280
0
281
0
  0
CLASS
  1
ACDBSECTIONVIEWSTYLE
  2
AcDbSectionViewStyle
  3
ObjectDBX Classes
 90
1025
 91
0
280
0
281
0
  0
CLASS
  1
RASTERVARIABLES
  2
AcDbRasterVariables
  3
ISM
 90
0
 91
0
280
0
281
0
  0
CLASS
  1
ACDBPLACEHOLDER
  2
AcDbPlaceHolder
  3
ObjectDBX Classes
 90
0
 91
0
280
0
281
0
  0
CLASS
  1
LAYOUT
  2
AcDbLayout
  3
ObjectDBX Classes
 90
0
 91
0
280
0
281
0
  0
ENDSEC
  0
SECTION
  2
TABLES
  0
TABLE
  2
VPORT
  5
8
330
0
100
AcDbSymbolTable
 70
1
  0
VPORT
  5
23
330
8
100
AcDbSymbolTableRecord
100
AcDbViewportTableRecord
  2
*Active
 70
0
 10
0.0
 20
0.0
 11
1.0
 21
1.0
 12
452375.2806978477
 22
4412316.982292499
 13
0.0
 23
0.0
 14
0.5
 24
0.5
 15
0.5
 25
0.5
 16
0.0
 26
0.0
 36
1.0
 17
0.0
 27
0.0
 37
0.0
 40
164.63995169023306
 41
1.34
 42
50.0
 43
0.0
 44
0.0
 50
0.0
 51
0.0
 71
0
 72
1000
 73
1
 74
3
 75
0
 76
0
 77
0
 78
0
281
0
 65
0
146
0.0
  0
ENDTAB
  0
TABLE
  2
LTYPE
  5
2
330
0
100
AcDbSymbolTable
 70
3
  0
LTYPE
  5
24
330
2
100
AcDbSymbolTableRecord
100
AcDbLinetypeTableRecord
  2
ByBlock
 70
0
  3

 72
65
 73
0
 40
0.0
  0
LTYPE
  5
25
330
2
100
AcDbSymbolTableRecord
100
AcDbLinetypeTableRecord
  2
ByLayer
 70
0
  3

 72
65
 73
0
 40
0.0
  0
LTYPE
  5
26
330
2
100
AcDbSymbolTableRecord
100
AcDbLinetypeTableRecord
  2
Continuous
 70
0
  3
Solid line
 72
65
 73
0
 40
0.0
  0
ENDTAB
  0
TABLE
  2
LAYER
  5
1
330
0
100
AcDbSymbolTable
 70
2
  0
LAYER
  5
27
330
1
100
AcDbSymbolTableRecord
100
AcDbLayerTableRecord
  2
0
 70
0
 62
7
  6
Continuous
370
-3
390
13
347
21
  0
LAYER
  5
73
330
1
100
AcDbSymbolTableRecord
100
AcDbLayerTableRecord
  2
Ölçü
 70
0
 62
42
420
15049994
  6
Continuous
370
18
390
13
347
21
  0
ENDTAB
  0
TABLE
  2
STYLE
  5
5
330
0
100
AcDbSymbolTable
 70
1
  0
STYLE
  5
29
330
5
100
AcDbSymbolTableRecord
100
AcDbTextStyleTableRecord
  2
Standard
 70
0
 40
0.0
 41
1.0
 50
0.0
 71
0
 42
2.5
  3
arial.ttf
  4

  0
ENDTAB
  0
TABLE
  2
VIEW
  5
7
330
0
100
AcDbSymbolTable
 70
0
  0
ENDTAB
  0
TABLE
  2
UCS
  5
6
330
0
100
AcDbSymbolTable
 70
0
  0
ENDTAB
  0
TABLE
  2
APPID
  5
3
330
0
100
AcDbSymbolTable
 70
2
  0
APPID
  5
2A
330
3
100
AcDbSymbolTableRecord
100
AcDbRegAppTableRecord
  2
ACAD
 70
0
  0
APPID
  5
2D
330
3
100
AcDbSymbolTableRecord
100
AcDbRegAppTableRecord
  2
KENTOS
 70
0
  0
ENDTAB
  0
TABLE
  2
DIMSTYLE
  5
4
330
0
100
AcDbSymbolTable
 70
1
100
AcDbDimStyleTable
  0
DIMSTYLE
105
2B
330
4
100
AcDbSymbolTableRecord
100
AcDbDimStyleTableRecord
  2
Standard
 70
0
 40
1.0
 41
2.5
 42
0.625
 43
3.75
 44
1.25
 46
0.0
 47
0.0
 48
0.0
 49
2.5
140
2.5
141
2.5
142
0.0
143
0.03937007874
144
1.0
145
0.0
146
1.0
147
0.625
148
0.0
 69
0
 70
0
 71
0
 72
0
 73
0
 74
0
 75
0
 76
0
 77
1
 78
0
 79
0
170
0
171
3
172
1
173
0
174
0
175
0
176
0
177
0
178
0
179
2
271
2
272
2
273
2
274
3
275
0
276
0
277
2
278
46
279
0
280
0
281
0
282
0
283
0
284
8
285
0
286
0
288
0
289
3
290
0
371
-2
372
-2
  0
ENDTAB
  0
TABLE
  2
BLOCK_RECORD
  5
9
330
0
100
AcDbSymbolTable
 70
9
  0
BLOCK_RECORD
  5
17
330
9
100
AcDbSymbolTableRecord
100
AcDbBlockTableRecord
  2
*Model_Space
340
1A
 70
0
280
1
281
0
  0
BLOCK_RECORD
  5
1B
330
9
100
AcDbSymbolTableRecord
100
AcDbBlockTableRecord
  2
*Paper_Space
340
1E
 70
0
280
1
281
0
  0
BLOCK_RECORD
  5
2E
330
9
100
AcDbSymbolTableRecord
100
AcDbBlockTableRecord
  2
*D1
340
0
 70
0
280
1
281
0
  0
BLOCK_RECORD
  5
34
330
9
100
AcDbSymbolTableRecord
100
AcDbBlockTableRecord
  2
*D2
340
0
 70
0
280
1
281
0
  0
BLOCK_RECORD
  5
3A
330
9
100
AcDbSymbolTableRecord
100
AcDbBlockTableRecord
  2
*D3
340
0
 70
0
280
1
281
0
  0
BLOCK_RECORD
  5
50
330
9
100
AcDbSymbolTableRecord
100
AcDbBlockTableRecord
  2
*D4
340
0
 70
0
280
1
281
0
  0
BLOCK_RECORD
  5
59
330
9
100
AcDbSymbolTableRecord
100
AcDbBlockTableRecord
  2
*D5
340
0
 70
0
280
1
281
0
  0
BLOCK_RECORD
  5
61
330
9
100
AcDbSymbolTableRecord
100
AcDbBlockTableRecord
  2
*D6
340
0
 70
0
280
1
281
0
  0
BLOCK_RECORD
  5
69
330
9
100
AcDbSymbolTableRecord
100
AcDbBlockTableRecord
  2
*D7
340
0
 70
0
280
1
281
0
  0
ENDTAB
  0
ENDSEC
  0
SECTION
  2
BLOCKS
  0
BLOCK
  5
18
330
17
100
AcDbEntity
  8
0
100
AcDbBlockBegin
  2
*Model_Space
 70
0
 10
0.0
 20
0.0
 30
0.0
  3
*Model_Space
  1

  0
ENDBLK
  5
19
330
17
100
AcDbEntity
  8
0
100
AcDbBlockEnd
  0
BLOCK
  5
1C
330
1B
100
AcDbEntity
  8
0
100
AcDbBlockBegin
  2
*Paper_Space
 70
0
 10
0.0
 20
0.0
 30
0.0
  3
*Paper_Space
  1

  0
ENDBLK
  5
1D
330
1B
100
AcDbEntity
  8
0
100
AcDbBlockEnd
  0
BLOCK
  5
2F
330
2E
100
AcDbEntity
  8
0
100
AcDbBlockBegin
  2
*D1
 70
1
 10
0.0
 20
0.0
 30
0.0
  3
*D1
  1

  0
LINE
  5
30
330
2E
100
AcDbEntity
  8
0
 62
0
100
AcDbLine
 10
452310.0
 20
4412321.25
 30
0.0
 11
452310.0
 21
4412345.0
 31
0.0
  0
MTEXT
  5
31
330
2E
100
AcDbEntity
  8
0
 62
0
100
AcDbMText
 10
452307.875
 20
4412333.125
 30
0.0
 40
2.5
 41
0.0
 71
5
 72
1
  1
Y=452310.000
  7
Standard
 11
0.0
 21
1.0
 31
0.0
  0
ENDBLK
  5
32
330
2E
100
AcDbEntity
  8
0
100
AcDbBlockEnd
  0
BLOCK
  5
35
330
34
100
AcDbEntity
  8
0
100
AcDbBlockBegin
  2
*D2
 70
1
 10
0.0
 20
0.0
 30
0.0
  3
*D2
  1

  0
LINE
  5
36
330
34
100
AcDbEntity
  8
0
 62
0
100
AcDbLine
 10
452308.75
 20
4412320.0
 30
0.0
 11
452275.0
 21
4412320.0
 31
0.0
  0
MTEXT
  5
37
330
34
100
AcDbEntity
  8
0
 62
0
100
AcDbMText
 10
452291.875
 20
4412322.125
 30
0.0
 40
2.5
 41
0.0
 71
5
 72
1
  1
X=4412320.000
  7
Standard
 11
1.0
 21
0.0
 31
0.0
  0
ENDBLK
  5
38
330
34
100
AcDbEntity
  8
0
100
AcDbBlockEnd
  0
BLOCK
  5
3B
330
3A
100
AcDbEntity
  8
0
100
AcDbBlockBegin
  2
*D3
 70
1
 10
0.0
 20
0.0
 30
0.0
  3
*D3
  1

  0
LINE
  5
3C
330
3A
100
AcDbEntity
  8
0
 62
0
100
AcDbLine
 10
452361.25
 20
4412300.0
 30
0.0
 11
452364.25
 21
4412300.0
 31
0.0
  0
LINE
  5
3D
330
3A
100
AcDbEntity
  8
0
 62
0
100
AcDbLine
 10
452350.0
 20
4412311.25
 30
0.0
 11
452350.0
 21
4412314.25
 31
0.0
  0
LINE
  5
3E
330
3A
100
AcDbEntity
  8
0
 62
0
100
AcDbLine
 10
452363.5303300859
 20
4412299.469669914
 30
0.0
 11
452362.4696699141
 21
4412300.530330086
 31
0.0
  0
LINE
  5
3F
330
3A
100
AcDbEntity
  8
0
 62
0
100
AcDbLine
 10
452350.5303300859
 20
4412313.530330086
 30
0.0
 11
452349.4696699141
 21
4412312.469669914
 31
0.0
  0
LINE
  5
40
330
3A
100
AcDbEntity
  8
0
 62
0
100
AcDbLine
 10
452362.63953371375
 20
4412311.578873541
 30
0.0
 11
452362.7587226807
 21
4412311.734203627
 31
0.0
  0
LINE
  5
41
330
3A
100
AcDbEntity
  8
0
 62
0
100
AcDbLine
 10
452362.7587226807
 20
4412311.734203627
 30
0.0
 11
452362.8336479976
 21
4412311.915089344
 31
0.0
  0
LINE
  5
42
330
3A
100
AcDbEntity
  8
0
 62
0
100
AcDbLine
 10
452362.8336479976
 20
4412311.915089344
 30
0.0
 11
452362.85920362786
 21
4412312.109203627
 31
0.0
  0
LINE
  5
43
330
3A
100
AcDbEntity
  8
0
 62
0
100
AcDbLine
 10
452362.85920362786
 20
4412312.109203627
 30
0.0
 11
452362.8336479976
 21
4412312.303317911
 31
0.0
  0
LINE
  5
44
330
3A
100
AcDbEntity
  8
0
 62
0
100
AcDbLine
 10
452362.8336479976
 20
4412312.303317911
 30
0.0
 11
452362.7587226807
 21
4412312.484203627
 31
0.0
  0
LINE
  5
45
330
3A
100
AcDbEntity
  8
0
 62
0
100
AcDbLine
 10
452362.7587226807
 20
4412312.484203627
 30
0.0
 11
452362.63953371375
 21
4412312.639533713
 31
0.0
  0
LINE
  5
46
330
3A
100
AcDbEntity
  8
0
 62
0
100
AcDbLine
 10
452362.63953371375
 20
4412312.639533713
 30
0.0
 11
452362.48420362786
 21
4412312.75872268
 31
0.0
  0
LINE
  5
47
330
3A
100
AcDbEntity
  8
0
 62
0
100
AcDbLine
 10
452362.48420362786
 20
4412312.75872268
 30
0.0
 11
452362.3033179117
 21
4412312.833647997
 31
0.0
  0
LINE
  5
48
330
3A
100
AcDbEntity
  8
0
 62
0
100
AcDbLine
 10
452362.3033179117
 20
4412312.833647997
 30
0.0
 11
452362.10920362786
 21
4412312.859203627
 31
0.0
  0
LINE
  5
49
330
3A
100
AcDbEntity
  8
0
 62
0
100
AcDbLine
 10
452362.10920362786
 20
4412312.859203627
 30
0.0
 11
452361.915089344
 21
4412312.833647997
 31
0.0
  0
LINE
  5
4A
330
3A
100
AcDbEntity
  8
0
 62
0
100
AcDbLine
 10
452361.915089344
 20
4412312.833647997
 30
0.0
 11
452361.73420362786
 21
4412312.75872268
 31
0.0
  0
LINE
  5
4B
330
3A
100
AcDbEntity
  8
0
 62
0
100
AcDbLine
 10
452361.73420362786
 20
4412312.75872268
 30
0.0
 11
452361.57887354196
 21
4412312.639533713
 31
0.0
  0
ARC
  5
4C
330
3A
100
AcDbEntity
  8
0
 62
0
100
AcDbCircle
 10
452350.0
 20
4412300.0
 30
0.0
 40
13.0
100
AcDbArc
 50
0.0
 51
90.0
  0
MTEXT
  5
4D
330
3A
100
AcDbEntity
  8
0
 62
0
100
AcDbMText
 10
452360.6949900655
 20
4412310.694990065
 30
0.0
 40
2.5
 41
0.0
 71
5
 72
1
  1
15.708
  7
Standard
 11
0.7071067811865476
 21
-0.7071067811865475
 31
0.0
  0
ENDBLK
  5
4E
330
3A
100
AcDbEntity
  8
0
100
AcDbBlockEnd
  0
BLOCK
  5
51
330
50
100
AcDbEntity
  8
0
100
AcDbBlockBegin
  2
*D4
 70
1
 10
0.0
 20
0.0
 30
0.0
  3
*D4
  1

  0
LINE
  5
52
330
50
100
AcDbEntity
  8
0
 62
0
100
AcDbLine
 10
452465.584951
 20
4412288.964585
 30
0.0
 11
452468.3211121567
 21
4412296.482125962
 31
0.0
  0
LINE
  5
53
330
50
100
AcDbEntity
  8
0
 62
0
100
AcDbLine
 10
452468.3211121567
 20
4412296.482125962
 30
0.0
 11
452472.1662507372
 21
4412298.275143522
 31
0.0
  0
LINE
  5
54
330
50
100
AcDbEntity
  8
0
 62
0
100
AcDbLine
 10
452472.1662507372
 20
4412298.275143522
 30
0.0
 11
452475.244432
 21
4412306.732377
 31
0.0
  0
LINE
  5
55
330
50
100
AcDbEntity
  8
0
 62
0
100
AcDbLine
 10
452475.5613956954
 20
4412306.052646159
 30
0.0
 11
452474.9274683046
 21
4412307.412107841
 31
0.0
  0
MTEXT
  5
56
330
50
100
AcDbEntity
  8
0
 62
0
100
AcDbMText
 10
452471.7084945504
 20
4412303.230553068
 30
0.0
 40
2.5
 41
0.0
 71
5
 72
1
  1
R 220.000
  7
Standard
 11
0.3420201445812586
 21
0.9396926203289111
 31
0.0
  0
ENDBLK
  5
57
330
50
100
AcDbEntity
  8
0
100
AcDbBlockEnd
  0
BLOCK
  5
5A
330
59
100
AcDbEntity
  8
0
100
AcDbBlockBegin
  2
*D5
 70
1
 10
0.0
 20
0.0
 30
0.0
  3
*D5
  1

  0
LINE
  5
5B
330
59
100
AcDbEntity
  8
0
 62
0
100
AcDbLine
 10
452376.7594130791
 20
4412301.5243817
 30
0.0
 11
452377.258305658
 21
4412309.007770385
 31
0.0
  0
LINE
  5
5C
330
59
100
AcDbEntity
  8
0
 62
0
100
AcDbLine
 10
452377.258305658
 20
4412309.007770385
 30
0.0
 11
452376.6762643159
 21
4412307.793798443
 31
0.0
  0
LINE
  5
5D
330
59
100
AcDbEntity
  8
0
 62
0
100
AcDbLine
 10
452377.258305658
 20
4412309.007770385
 30
0.0
 11
452377.6740494738
 21
4412307.727279432
 31
0.0
  0
MTEXT
  5
5E
330
59
100
AcDbEntity
  8
0
 62
0
100
AcDbMText
 10
452374.8885659081
 20
4412305.40742894
 30
0.0
 40
2.5
 41
0.0
 71
5
 72
1
  1
t=4.2388
  7
Standard
 11
0.06651901052377394
 21
0.9977851578566089
 31
0.0
  0
ENDBLK
  5
5F
330
59
100
AcDbEntity
  8
0
100
AcDbBlockEnd
  0
BLOCK
  5
62
330
61
100
AcDbEntity
  8
0
100
AcDbBlockBegin
  2
*D6
 70
1
 10
0.0
 20
0.0
 30
0.0
  3
*D6
  1

  0
LINE
  5
63
330
61
100
AcDbEntity
  8
0
 62
0
100
AcDbLine
 10
452415.50398125214
 20
4412301.782819023
 30
0.0
 11
452416.4342417615
 21
4412309.224903099
 31
0.0
  0
LINE
  5
64
330
61
100
AcDbEntity
  8
0
 62
0
100
AcDbLine
 10
452416.4342417615
 20
4412309.224903099
 30
0.0
 11
452415.78305940493
 21
4412308.04657312
 31
0.0
  0
LINE
  5
65
330
61
100
AcDbEntity
  8
0
 62
0
100
AcDbLine
 10
452416.4342417615
 20
4412309.224903099
 30
0.0
 11
452416.77533728164
 21
4412307.922538386
 31
0.0
  0
MTEXT
  5
66
330
61
100
AcDbEntity
  8
0
 62
0
100
AcDbMText
 10
452417.8792464195
 20
4412305.265094197
 30
0.0
 40
2.5
 41
0.0
 71
5
 72
1
  1
%3.88
  7
Standard
 11
0.12403473458920855
 21
0.9922778767136676
 31
0.0
  0
ENDBLK
  5
67
330
61
100
AcDbEntity
  8
0
100
AcDbBlockEnd
  0
BLOCK
  5
6A
330
69
100
AcDbEntity
  8
0
100
AcDbBlockBegin
  2
*D7
 70
1
 10
0.0
 20
0.0
 30
0.0
  3
*D7
  1

  0
LINE
  5
6B
330
69
100
AcDbEntity
  8
0
 62
0
100
AcDbLine
 10
452380.0
 20
4412336.25
 30
0.0
 11
452380.0
 21
4412339.25
 31
0.0
  0
LINE
  5
6C
330
69
100
AcDbEntity
  8
0
 62
0
100
AcDbLine
 10
452420.0
 20
4412336.25
 30
0.0
 11
452420.0
 21
4412339.25
 31
0.0
  0
LINE
  5
6D
330
69
100
AcDbEntity
  8
0
 62
0
100
AcDbLine
 10
452380.0
 20
4412338.0
 30
0.0
 11
452420.0
 21
4412338.0
 31
0.0
  0
LINE
  5
6E
330
69
100
AcDbEntity
  8
0
 62
0
100
AcDbLine
 10
452379.4696699141
 20
4412337.469669914
 30
0.0
 11
452380.5303300859
 21
4412338.530330086
 31
0.0
  0
LINE
  5
6F
330
69
100
AcDbEntity
  8
0
 62
0
100
AcDbLine
 10
452419.4696699141
 20
4412337.469669914
 30
0.0
 11
452420.5303300859
 21
4412338.530330086
 31
0.0
  0
MTEXT
  5
70
330
69
100
AcDbEntity
  8
0
 62
0
100
AcDbMText
 10
452400.0
 20
4412340.125
 30
0.0
 40
2.5
 41
0.0
 71
5
 72
1
  1
40.000
  7
Standard
 11
1.0
 21
0.0
 31
0.0
 90
3
 63
256
 45
1.1
441
0
  0
ENDBLK
  5
71
330
69
100
AcDbEntity
  8
0
100
AcDbBlockEnd
  0
ENDSEC
  0
SECTION
  2
ENTITIES
  0
DIMENSION
  5
33
330
17
100
AcDbEntity
  8
Ölçü
100
AcDbDimension
  2
*D1
 10
0.0
 20
0.0
 30
0.0
 11
452307.875
 21
4412333.125
 31
0.0
 70
102
 71
5
 42
452310.0
  1

  3
Standard
100
AcDbOrdinateDimension
 13
452310.0
 23
4412320.0
 33
0.0
 14
452310.0
 24
4412345.0
 34
0.0
1001
ACAD
1000
DSTYLE
1002
{
1070
140
1040
2.5
1070
142
1040
1.0606601717798214
1070
42
1040
1.25
1070
44
1040
1.25
1070
147
1040
0.875
1070
77
1070
1
1070
73
1070
0
1070
74
1070
0
1070
271
1070
3
1070
275
1070
2
1070
179
1070
4
1002
}
1001
KENTOS
1002
{
1000
dimension
1000
ordinate
1040
0.0
1040
2.5
1002
}
  0
DIMENSION
  5
39
330
17
100
AcDbEntity
  8
Ölçü
100
AcDbDimension
  2
*D2
 10
0.0
 20
0.0
 30
0.0
 11
452291.875
 21
4412322.125
 31
0.0
 70
38
 71
5
 42
4412320.0
  1

  3
Standard
100
AcDbOrdinateDimension
 13
452310.0
 23
4412320.0
 33
0.0
 14
452275.0
 24
4412320.0
 34
0.0
1001
ACAD
1000
DSTYLE
1002
{
1070
140
1040
2.5
1070
142
1040
1.0606601717798214
1070
42
1040
1.25
1070
44
1040
1.25
1070
147
1040
0.875
1070
77
1070
1
1070
73
1070
0
1070
74
1070
0
1070
271
1070
3
1070
275
1070
2
1070
179
1070
4
1002
}
1001
KENTOS
1002
{
1000
dimension
1000
ordinate
1040
0.0
1040
2.5
1002
}
  0
ARC_DIMENSION
  5
4F
330
17
100
AcDbEntity
  8
Ölçü
100
AcDbDimension
  2
*D3
 10
452359.19238815544
 20
4412309.1923881555
 30
0.0
 11
452360.6949900655
 21
4412310.694990065
 31
0.0
 70
37
 71
5
 42
15.707963267948966
  1

  3
Standard
100
AcDbArcDimension
 13
452360.0
 23
4412300.0
 33
0.0
 14
452350.0
 24
4412310.0
 34
0.0
 15
452350.0
 25
4412300.0
 35
0.0
 70
0
 40
0.0
 41
1.5707963267948966
 71
0
1001
ACAD
1000
DSTYLE
1002
{
1070
140
1040
2.5
1070
142
1040
1.0606601717798214
1070
42
1040
1.25
1070
44
1040
1.25
1070
147
1040
0.875
1070
77
1070
1
1070
73
1070
0
1070
74
1070
0
1070
271
1070
3
1070
275
1070
2
1070
179
1070
4
1002
}
1001
KENTOS
1002
{
1000
dimension
1000
arcLength
1040
3.0
1040
2.5
1002
}
  0
LARGE_RADIAL_DIMENSION
  5
58
330
17
100
AcDbEntity
  8
Ölçü
100
AcDbDimension
  2
*D4
 10
452400.0
 20
4412100.0
 30
0.0
 11
452471.7084945504
 21
4412303.230553068
 31
0.0
 70
41
 71
5
 42
220.0000005616652
  1

  3
Standard
100
AcDbRadialDimensionLarge
 13
452465.584951
 23
4412288.964585
 33
0.0
 14
452470.24368144694
 24
4412297.378634742
 34
0.0
 15
452475.244432
 25
4412306.732377
 35
0.0
 40
0.0
1001
ACAD
1000
DSTYLE
1002
{
1070
140
1040
2.5
1070
142
1040
1.0606601717798214
1070
42
1040
1.25
1070
44
1040
1.25
1070
147
1040
0.875
1070
50
1040
0.7853981633974483
1070
77
1070
1
1070
73
1070
0
1070
74
1070
0
1070
271
1070
3
1070
275
1070
2
1070
179
1070
4
1002
}
1001
KENTOS
1002
{
1000
dimension
1000
jogged
1040
8.0
1040
2.5
1002
}
  0
DIMENSION
  5
60
330
17
100
AcDbEntity
  8
Ölçü
100
AcDbDimension
  2
*D5
 10
452377.258305658
 20
4412309.007770385
 30
0.0
 11
452374.8885659081
 21
4412305.40742894
 31
0.0
 70
33
 71
5
 42
0.06656816377582381
  1

  3
Standard
100
AcDbAlignedDimension
 13
452380.0
 23
4412290.0
 33
0.0
 14
452382.0
 24
4412320.0
 34
0.0
 50
86.18592516570965
1001
ACAD
1000
DSTYLE
1002
{
1070
140
1040
2.5
1070
142
1040
1.0606601717798214
1070
42
1040
1.25
1070
44
1040
1.25
1070
147
1040
0.875
1070
77
1070
1
1070
73
1070
0
1070
74
1070
0
1070
271
1070
3
1070
275
1070
2
1070
179
1070
4
1002
}
1001
KENTOS
1002
{
1000
dimension
1000
azimuth
1040
4.0
1040
2.5
1002
}
  0
DIMENSION
  5
68
330
17
100
AcDbEntity
  8
Ölçü
100
AcDbDimension
  2
*D6
 10
452416.4342417615
 20
4412309.224903099
 30
0.0
 11
452417.8792464195
 21
4412305.265094197
 31
0.0
 70
33
 71
5
 42
3.876085455912764
  1

  3
Standard
100
AcDbAlignedDimension
 13
452410.0
 23
4412290.0
 33
0.0
 14
452414.0
 24
4412322.0
 34
0.0
 50
82.87498365109819
1001
ACAD
1000
DSTYLE
1002
{
1070
140
1040
2.5
1070
142
1040
1.0606601717798214
1070
42
1040
1.25
1070
44
1040
1.25
1070
147
1040
0.875
1070
77
1070
1
1070
73
1070
0
1070
74
1070
0
1070
271
1070
3
1070
275
1070
2
1070
179
1070
4
1002
}
1001
KENTOS
1002
{
1000
dimension
1000
slope
1040
-4.0
1040
2.5
1002
{
1000
za
1040
102.4
1002
}
1002
{
1000
zb
1040
101.15
1002
}
1002
}
  0
DIMENSION
  5
72
330
17
100
AcDbEntity
  8
Ölçü
100
AcDbDimension
  2
*D7
 10
452420.0
 20
4412338.0
 30
0.0
 11
452400.0
 21
4412340.125
 31
0.0
 70
33
 71
5
 42
40.0
  1

  3
Standard
100
AcDbAlignedDimension
 13
452380.0
 23
4412335.0
 33
0.0
 14
452420.0
 24
4412335.0
 34
0.0
 50
0.0
1001
ACAD
1000
DSTYLE
1002
{
1070
140
1040
2.5
1070
142
1040
1.0606601717798214
1070
42
1040
1.25
1070
44
1040
1.25
1070
147
1040
0.875
1070
69
1070
1
1070
77
1070
1
1070
73
1070
0
1070
74
1070
0
1070
271
1070
3
1070
275
1070
2
1070
179
1070
4
1002
}
1001
KENTOS
1002
{
1000
mask
1002
}
1002
{
1000
dimension
1000

1040
3.0
1040
2.5
1002
}
  0
ENDSEC
  0
SECTION
  2
OBJECTS
  0
DICTIONARY
  5
A
330
0
100
AcDbDictionary
281
1
  3
ACAD_COLOR
350
B
  3
ACAD_GROUP
350
C
  3
ACAD_LAYOUT
350
D
  3
ACAD_MATERIAL
350
E
  3
ACAD_MLEADERSTYLE
350
F
  3
ACAD_MLINESTYLE
350
10
  3
ACAD_PLOTSETTINGS
350
11
  3
ACAD_PLOTSTYLENAME
350
12
  3
ACAD_SCALELIST
350
14
  3
ACAD_TABLESTYLE
350
15
  3
ACAD_VISUALSTYLE
350
16
  0
DICTIONARY
  5
B
330
A
100
AcDbDictionary
281
1
  0
DICTIONARY
  5
C
330
A
100
AcDbDictionary
281
1
  0
DICTIONARY
  5
D
330
A
100
AcDbDictionary
281
1
  3
Model
350
1A
  3
Layout1
350
1E
  0
DICTIONARY
  5
E
330
A
100
AcDbDictionary
281
1
  3
ByBlock
350
1F
  3
ByLayer
350
20
  3
Global
350
21
  0
DICTIONARY
  5
F
330
A
100
AcDbDictionary
281
1
  3
Standard
350
2C
  0
DICTIONARY
  5
10
330
A
100
AcDbDictionary
281
1
  3
Standard
350
22
  0
DICTIONARY
  5
11
330
A
100
AcDbDictionary
281
1
  0
ACDBDICTIONARYWDFLT
  5
12
330
A
100
AcDbDictionary
281
1
  3
Normal
350
13
100
AcDbDictionaryWithDefault
340
13
  0
ACDBPLACEHOLDER
  5
13
330
12
  0
DICTIONARY
  5
14
330
A
100
AcDbDictionary
281
1
  0
DICTIONARY
  5
15
330
A
100
AcDbDictionary
281
1
  0
DICTIONARY
  5
16
330
A
100
AcDbDictionary
281
1
  0
LAYOUT
  5
1A
330
D
100
AcDbPlotSettings
  1

  4
A3
  6

 40
7.5
 41
20.0
 42
7.5
 43
20.0
 44
420.0
 45
297.0
 46
0.0
 47
0.0
 48
0.0
 49
0.0
140
0.0
141
0.0
142
1.0
143
1.0
 70
1024
 72
1
 73
0
 74
5
  7

 75
16
 76
0
 77
2
 78
300
147
1.0
148
0.0
149
0.0
100
AcDbLayout
  1
Model
 70
1
 71
0
 10
0.0
 20
0.0
 11
420.0
 21
297.0
 12
0.0
 22
0.0
 32
0.0
 14
1.0E+20
 24
1.0E+20
 34
1.0E+20
 15
-1.0E+20
 25
-1.0E+20
 35
-1.0E+20
146
0.0
 13
0.0
 23
0.0
 33
0.0
 16
1.0
 26
0.0
 36
0.0
 17
0.0
 27
1.0
 37
0.0
 76
1
330
17
  0
LAYOUT
  5
1E
330
D
100
AcDbPlotSettings
  1

  4
A3
  6

 40
7.5
 41
20.0
 42
7.5
 43
20.0
 44
420.0
 45
297.0
 46
0.0
 47
0.0
 48
0.0
 49
0.0
140
0.0
141
0.0
142
1.0
143
1.0
 70
0
 72
1
 73
0
 74
5
  7

 75
16
 76
0
 77
2
 78
300
147
1.0
148
0.0
149
0.0
100
AcDbLayout
  1
Layout1
 70
1
 71
1
 10
0.0
 20
0.0
 11
420.0
 21
297.0
 12
0.0
 22
0.0
 32
0.0
 14
1.0E+20
 24
1.0E+20
 34
1.0E+20
 15
-1.0E+20
 25
-1.0E+20
 35
-1.0E+20
146
0.0
 13
0.0
 23
0.0
 33
0.0
 16
1.0
 26
0.0
 36
0.0
 17
0.0
 27
1.0
 37
0.0
 76
1
330
1B
  0
MATERIAL
  5
1F
102
{ACAD_REACTORS
330
E
102
}
330
E
100
AcDbMaterial
  1
ByBlock
  2

 70
0
 40
1.0
 71
1
 41
1.0
 91
-1023410177
 42
1.0
 72
1
  3

 73
1
 74
1
 75
1
 44
0.5
 73
0
 45
1.0
 46
1.0
 77
1
  4

 78
1
 79
1
170
1
 48
1.0
171
1
  6

172
1
173
1
174
1
140
1.0
141
1.0
175
1
  7

176
1
177
1
178
1
143
1.0
179
1
  8

270
1
271
1
272
1
145
1.0
146
1.0
273
1
  9

274
1
275
1
276
1
 42
1.0
 72
1
  3

 73
1
 74
1
 75
1
 94
63
  0
MATERIAL
  5
20
102
{ACAD_REACTORS
330
E
102
}
330
E
100
AcDbMaterial
  1
ByLayer
  2

 70
0
 40
1.0
 71
1
 41
1.0
 91
-1023410177
 42
1.0
 72
1
  3

 73
1
 74
1
 75
1
 44
0.5
 73
0
 45
1.0
 46
1.0
 77
1
  4

 78
1
 79
1
170
1
 48
1.0
171
1
  6

172
1
173
1
174
1
140
1.0
141
1.0
175
1
  7

176
1
177
1
178
1
143
1.0
179
1
  8

270
1
271
1
272
1
145
1.0
146
1.0
273
1
  9

274
1
275
1
276
1
 42
1.0
 72
1
  3

 73
1
 74
1
 75
1
 94
63
  0
MATERIAL
  5
21
102
{ACAD_REACTORS
330
E
102
}
330
E
100
AcDbMaterial
  1
Global
  2

 70
0
 40
1.0
 71
1
 41
1.0
 91
-1023410177
 42
1.0
 72
1
  3

 73
1
 74
1
 75
1
 44
0.5
 73
0
 45
1.0
 46
1.0
 77
1
  4

 78
1
 79
1
170
1
 48
1.0
171
1
  6

172
1
173
1
174
1
140
1.0
141
1.0
175
1
  7

176
1
177
1
178
1
143
1.0
179
1
  8

270
1
271
1
272
1
145
1.0
146
1.0
273
1
  9

274
1
275
1
276
1
 42
1.0
 72
1
  3

 73
1
 74
1
 75
1
 94
63
  0
MLINESTYLE
  5
22
102
{ACAD_REACTORS
330
10
102
}
330
10
100
AcDbMlineStyle
  2
Standard
 70
0
  3

 62
256
 51
90.0
 52
90.0
 71
2
 49
0.5
 62
256
  6
BYLAYER
 49
-0.5
 62
256
  6
BYLAYER
  0
MLEADERSTYLE
  5
2C
102
{ACAD_REACTORS
330
F
102
}
330
F
100
AcDbMLeaderStyle
179
2
170
2
171
1
172
0
 90
2
 40
0.0
 41
0.0
173
1
 91
-1056964608
 92
-2
290
1
 42
2.0
291
1
 43
8.0
  3
Standard
 44
4.0
300

342
29
174
1
175
1
176
0
178
1
 93
-1056964608
 45
4.0
292
0
297
0
 46
4.0
 94
-1056964608
 47
1.0
 49
1.0
140
1.0
294
1
141
0.0
177
0
142
1.0
295
0
296
0
143
3.75
271
0
272
9
273
9
  0
ENDSEC
  0
EOF
