  0
SECTION
  2
HEADER
  9
$ACADVER
  1
AC1021
  9
$ACADMAINTVER
 70
25
  9
$DWGCODEPAGE
  3
ANSI_1254
  9
$INSBASE
 10
0.0
 20
0.0
 30
0.0
  9
$EXTMIN
 10
452299.15147186257
 20
4412300.0
 30
0.0
  9
$EXTMAX
 10
452520.0
 20
4412400.0
 30
0.0
  9
$LIMMIN
 10
452299.15147186257
 20
4412300.0
  9
$LIMMAX
 10
452520.0
 20
4412400.0
  9
$LTSCALE
 40
1.0
  9
$TEXTSTYLE
  7
Standard
  9
$CLAYER
  8
0
  9
$CELTYPE
  6
ByLayer
  9
$CECOLOR
 62
256
  9
$CELTSCALE
 40
1.0
  9
$DIMSTYLE
  2
Standard
  9
$LUNITS
 70
2
  9
$LUPREC
 70
3
  9
$AUNITS
 70
2
  9
$AUPREC
 70
4
  9
$ANGBASE
 50
0.0
  9
$ANGDIR
 70
0
  9
$PDMODE
 70
0
  9
$PDSIZE
 40
0.0
  9
$HANDSEED
  5
93
  9
$TILEMODE
 70
1
  9
$MEASUREMENT
 70
1
  9
$CELWEIGHT
370
-1
  9
$LWDISPLAY
290
0
  9
$INSUNITS
 70
6
  9
$PSTYLEMODE
290
1
  9
$EXTNAMES
290
1
  0
ENDSEC
  0
SECTION
  2
CLASSES
  0
CLASS
  1
ACDBDICTIONARYWDFLT
  2
AcDbDictionaryWithDefault
  3
ObjectDBX Classes
 90
0
 91
0
280
0
281
0
  0
CLASS
  1
SUN
  2
AcDbSun
  3
SCENEOE
 90
1153
 91
0
280
0
281
0
  0
CLASS
  1
VISUALSTYLE
  2
AcDbVisualStyle
  3
ObjectDBX Classes
 90
4095
 91
0
280
0
281
0
  0
CLASS
  1
MATERIAL
  2
AcDbMaterial
  3
ObjectDBX Classes
 90
1153
 91
0
280
0
281
0
  0
CLASS
  1
SCALE
  2
AcDbScale
  3
ObjectDBX Classes
 90
1153
 91
0
280
0
281
0
  0
CLASS
  1
TABLESTYLE
  2
AcDbTableStyle
  3
ObjectDBX Classes
 90
4095
 91
0
280
0
281
0
  0
CLASS
  1
MLEADERSTYLE
  2
AcDbMLeaderStyle
  3
ACDB_MLEADERSTYLE_CLASS
 90
4095
 91
0
280
0
281
0
  0
CLASS
  1
DICTIONARYVAR
  2
AcDbDictionaryVar
  3
ObjectDBX Classes
 90
0
 91
0
280
0
281
0
  0
CLASS
  1
CELLSTYLEMAP
  2
AcDbCellStyleMap
  3
ObjectDBX Classes
 90
1152
 91
0
280
0
281
0
  0
CLASS
  1
MENTALRAYRENDERSETTINGS
  2
AcDbMentalRayRenderSettings
  3
SCENEOE
 90
1024
 91
0
280
0
281
0
  0
CLASS
  1
ACDBDETAILVIEWSTYLE
  2
AcDbDetailViewStyle
  3
ObjectDBX Classes
 90
1025
 91
0
280
0
281
0
  0
CLASS
  1
ACDBSECTIONVIEWSTYLE
  2
AcDbSectionViewStyle
  3
ObjectDBX Classes
 90
1025
 91
0
280
0
281
0
  0
CLASS
  1
RASTERVARIABLES
  2
AcDbRasterVariables
  3
ISM
 90
0
 91
0
280
0
281
0
  0
CLASS
  1
ACDBPLACEHOLDER
  2
AcDbPlaceHolder
  3
ObjectDBX Classes
 90
0
 91
0
280
0
281
0
  0
CLASS
  1
LAYOUT
  2
AcDbLayout
  3
ObjectDBX Classes
 90
0
 91
0
280
0
281
0
  0
ENDSEC
  0
SECTION
  2
TABLES
  0
TABLE
  2
VPORT
  5
8
330
0
100
AcDbSymbolTable
 70
1
  0
VPORT
  5
23
330
8
100
AcDbSymbolTableRecord
100
AcDbViewportTableRecord
  2
*Active
 70
0
 10
0.0
 20
0.0
 11
1.0
 21
1.0
 12
452409.5757359313
 22
4412350.0
 13
0.0
 23
0.0
 14
0.5
 24
0.5
 15
0.5
 25
0.5
 16
0.0
 26
0.0
 36
1.0
 17
0.0
 27
0.0
 37
0.0
 40
181.29356787401014
 41
1.34
 42
50.0
 43
0.0
 44
0.0
 50
0.0
 51
0.0
 71
0
 72
1000
 73
1
 74
3
 75
0
 76
0
 77
0
 78
0
281
0
 65
0
146
0.0
  0
ENDTAB
  0
TABLE
  2
LTYPE
  5
2
330
0
100
AcDbSymbolTable
 70
3
  0
LTYPE
  5
24
330
2
100
AcDbSymbolTableRecord
100
AcDbLinetypeTableRecord
  2
ByBlock
 70
0
  3

 72
65
 73
0
 40
0.0
  0
LTYPE
  5
25
330
2
100
AcDbSymbolTableRecord
100
AcDbLinetypeTableRecord
  2
ByLayer
 70
0
  3

 72
65
 73
0
 40
0.0
  0
LTYPE
  5
26
330
2
100
AcDbSymbolTableRecord
100
AcDbLinetypeTableRecord
  2
Continuous
 70
0
  3
Solid line
 72
65
 73
0
 40
0.0
  0
ENDTAB
  0
TABLE
  2
LAYER
  5
1
330
0
100
AcDbSymbolTable
 70
3
  0
LAYER
  5
27
330
1
100
AcDbSymbolTableRecord
100
AcDbLayerTableRecord
  2
0
 70
0
 62
7
  6
Continuous
370
-3
390
13
347
21
  0
LAYER
  5
86
330
1
100
AcDbSymbolTableRecord
100
AcDbLayerTableRecord
  2
Yazı
 70
0
 62
7
420
15263459
  6
Continuous
370
25
390
13
347
21
  0
LAYER
  5
87
330
1
100
AcDbSymbolTableRecord
100
AcDbLayerTableRecord
  2
Ölçü
 70
0
 62
42
420
15049994
  6
Continuous
370
18
390
13
347
21
  0
ENDTAB
  0
TABLE
  2
STYLE
  5
5
330
0
100
AcDbSymbolTable
 70
7
  0
STYLE
  5
29
330
5
100
AcDbSymbolTableRecord
100
AcDbTextStyleTableRecord
  2
Standard
 70
0
 40
0.0
 41
1.0
 50
0.0
 71
0
 42
2.5
  3
arial.ttf
  4

  0
STYLE
  5
88
330
5
100
AcDbSymbolTableRecord
100
AcDbTextStyleTableRecord
  2
Ada no
 70
0
 40
3.0
 41
0.9
 50
0.0
 71
0
 42
2.5
  3
arialbd.ttf
  4

1001
ACAD
1000
Arial
1071
33554466
1001
KENTOS
1002
{
1000
face
1000
{"id":"0192f1a0-0000-7000-8000-000000000001","name":"Ada no","font":"arimo","bold":true,"height":3.0,"widthFactor":0.9,"fontFile":"arialbd.ttf"}
1002
}
  0
STYLE
  5
89
330
5
100
AcDbSymbolTableRecord
100
AcDbTextStyleTableRecord
  2
Yol adı
 70
0
 40
0.0
 41
1.0
 50
15.0
 71
0
 42
2.5
  3
Barlow.ttf
  4

1001
ACAD
1000
Barlow
1071
16777250
1001
KENTOS
1002
{
1000
face
1000
{"id":"0192f1a0-0000-7000-8000-000000000002","name":"Yol adı","font":"barlow","italic":true,"oblique":15.0}
1002
}
  0
STYLE
  5
8A
330
5
100
AcDbSymbolTableRecord
100
AcDbTextStyleTableRecord
  2
Not
 70
0
 40
2.0
 41
1.0
 50
0.0
 71
0
 42
2.5
  3
courbi.ttf
  4

1001
ACAD
1000
Courier New
1071
50331682
1001
KENTOS
1002
{
1000
face
1000
{"id":"0192f1a0-0000-7000-8000-000000000003","name":"Not","font":"courier-prime","bold":true,"italic":true,"height":2.0}
1002
}
  0
STYLE
  5
8B
330
5
100
AcDbSymbolTableRecord
100
AcDbTextStyleTableRecord
  2
Boş_stil
 70
0
 40
0.0
 41
1.0
 50
0.0
 71
0
 42
2.5
  3
Overpass.ttf
  4

1001
ACAD
1000
Overpass
1071
34
1001
KENTOS
1002
{
1000
face
1000
{"id":"0192f1a0-0000-7000-8000-000000000004","name":"Boş/stil","font":"overpass"}
1002
}
  0
STYLE
  5
8C
330
5
100
AcDbSymbolTableRecord
100
AcDbTextStyleTableRecord
  2
KENTOS_ARIMO
 70
0
 40
0.0
 41
1.0
 50
0.0
 71
0
 42
2.5
  3
arial.ttf
  4

1001
ACAD
1000
Arial
1071
34
1001
KENTOS
1002
{
1000
face
1000
styleless
1002
}
  0
STYLE
  5
8D
330
5
100
AcDbSymbolTableRecord
100
AcDbTextStyleTableRecord
  2
KENTOS_QUICKSAND_B
 70
0
 40
0.0
 41
1.0
 50
0.0
 71
0
 42
2.5
  3
Quicksand.ttf
  4

1001
ACAD
1000
Quicksand
1071
33554466
1001
KENTOS
1002
{
1000
face
1000
styleless
1002
}
  0
ENDTAB
  0
TABLE
  2
VIEW
  5
7
330
0
100
AcDbSymbolTable
 70
0
  0
ENDTAB
  0
TABLE
  2
UCS
  5
6
330
0
100
AcDbSymbolTable
 70
0
  0
ENDTAB
  0
TABLE
  2
APPID
  5
3
330
0
100
AcDbSymbolTable
 70
2
  0
APPID
  5
2A
330
3
100
AcDbSymbolTableRecord
100
AcDbRegAppTableRecord
  2
ACAD
 70
0
  0
APPID
  5
2D
330
3
100
AcDbSymbolTableRecord
100
AcDbRegAppTableRecord
  2
KENTOS
 70
0
  0
ENDTAB
  0
TABLE
  2
DIMSTYLE
  5
4
330
0
100
AcDbSymbolTable
 70
6
100
AcDbDimStyleTable
  0
DIMSTYLE
105
2B
330
4
100
AcDbSymbolTableRecord
100
AcDbDimStyleTableRecord
  2
Standard
 70
0
 40
1.0
 41
2.5
 42
0.625
 43
3.75
 44
1.25
 46
0.0
 47
0.0
 48
0.0
 49
2.5
140
2.5
141
2.5
142
0.0
143
0.03937007874
144
1.0
145
0.0
146
1.0
147
0.625
148
0.0
 69
0
 70
0
 71
0
 72
0
 73
0
 74
0
 75
0
 76
0
 77
1
 78
0
 79
0
170
0
171
3
172
1
173
0
174
0
175
0
176
0
177
0
178
0
179
2
271
2
272
2
273
2
274
3
275
0
276
0
277
2
278
46
279
0
280
0
281
0
282
0
283
0
284
8
285
0
286
0
288
0
289
3
290
0
371
-2
372
-2
  0
DIMSTYLE
105
8E
330
4
100
AcDbSymbolTableRecord
100
AcDbDimStyleTableRecord
  2
Mimari
 70
0
  3
<> cm
 40
1.0
 41
2.5
 42
1.0
 43
3.75
 44
1.5
 46
0.0
 47
0.0
 48
0.0
 49
2.5
140
2.0
141
2.5
142
0.0
143
0.03937007874
144
100.0
145
0.0
146
1.0
147
0.8
148
0.0
 69
0
 70
0
 71
0
 72
0
 73
0
 74
0
 75
0
 76
0
 77
1
 78
0
 79
0
170
0
171
3
172
1
173
0
174
0
175
0
176
0
177
0
178
0
179
2
271
2
272
2
273
2
274
3
275
0
276
0
277
2
278
46
279
0
280
0
281
0
282
0
283
0
284
8
285
0
286
0
288
0
289
3
290
0
371
-2
372
-2
1001
KENTOS
1002
{
1000
look
1000
{"id":"0192f1a0-0000-7000-8000-0000000000d1","name":"Mimari","height":2.0,"arrow":"closed","arrowSize":2.5,"extOffset":1.0,"extBeyond":1.5,"textGap":0.8,"decimals":2,"unit":"cm","suffix":" cm","font":"arimo"}
1002
}
  0
DIMSTYLE
105
8F
330
4
100
AcDbSymbolTableRecord
100
AcDbDimStyleTableRecord
  2
Kadastro
 70
0
  3
L=<>
 40
1.0
 41
2.4
 42
1.5
 43
3.75
 44
1.5
 46
0.0
 47
0.0
 48
0.0
 49
2.5
140
3.0
141
2.5
142
1.697056274847714
143
0.03937007874
144
1.0
145
0.0
146
1.0
147
1.0499999999999998
148
0.0
 69
0
 70
0
 71
0
 72
0
 73
0
 74
0
 75
0
 76
0
 77
0
 78
0
 79
0
170
0
171
3
172
1
173
0
174
0
175
0
176
0
177
0
178
0
179
2
271
3
272
2
273
2
274
3
275
0
276
0
277
2
278
46
279
0
280
0
281
0
282
0
283
0
284
8
285
0
286
0
288
0
289
3
290
0
371
-2
372
-2
1001
KENTOS
1002
{
1000
look
1000
{"id":"0192f1a0-0000-7000-8000-0000000000d2","name":"Kadastro","height":3.0,"arrowSize":2.4,"textPlace":"centre","decimals":3,"prefix":"L="}
1002
}
  0
DIMSTYLE
105
90
330
4
100
AcDbSymbolTableRecord
100
AcDbDimStyleTableRecord
  2
Noktalı
 70
0
 40
1.0
 41
1.5
 42
1.25
 43
3.75
 44
1.25
 46
0.0
 47
0.0
 48
0.0
 49
2.5
140
2.5
141
2.5
142
0.0
143
0.03937007874
144
1.0
145
0.0
146
1.0
147
0.875
148
0.0
 69
0
 70
0
 71
0
 72
0
 73
0
 74
0
 75
0
 76
0
 77
1
 78
0
 79
0
170
0
171
3
172
1
173
0
174
0
175
0
176
0
177
0
178
0
179
2
271
2
272
2
273
2
274
3
275
0
276
0
277
2
278
46
279
0
280
0
281
0
282
0
283
0
284
8
285
0
286
0
288
0
289
3
290
0
371
-2
372
-2
1001
KENTOS
1002
{
1000
look
1000
{"id":"0192f1a0-0000-7000-8000-0000000000d3","name":"Noktalı","height":2.5,"arrow":"dot","arrowSize":1.5}
1002
}
  0
DIMSTYLE
105
91
330
4
100
AcDbSymbolTableRecord
100
AcDbDimStyleTableRecord
  2
Açık
 70
0
 40
1.0
 41
2.5
 42
1.25
 43
3.75
 44
1.25
 46
0.0
 47
0.0
 48
0.0
 49
2.5
140
2.5
141
2.5
142
0.0
143
0.03937007874
144
1.0
145
0.0
146
1.0
147
0.875
148
0.0
 69
0
 70
0
 71
0
 72
0
 73
0
 74
0
 75
0
 76
0
 77
1
 78
0
 79
0
170
0
171
3
172
1
173
0
174
0
175
0
176
0
177
0
178
0
179
2
271
2
272
2
273
2
274
3
275
0
276
0
277
2
278
46
279
0
280
0
281
0
282
0
283
0
284
8
285
0
286
0
288
0
289
3
290
0
371
-2
372
-2
1001
KENTOS
1002
{
1000
look
1000
{"id":"0192f1a0-0000-7000-8000-0000000000d4","name":"Açık","height":2.5,"arrow":"open"}
1002
}
  0
DIMSTYLE
105
92
330
4
100
AcDbSymbolTableRecord
100
AcDbDimStyleTableRecord
  2
Oksuz
 70
0
 40
1.0
 41
0.0
 42
1.25
 43
3.75
 44
1.25
 46
0.0
 47
0.0
 48
0.0
 49
2.5
140
2.5
141
2.5
142
0.0
143
0.03937007874
144
1.0
145
0.0
146
1.0
147
0.875
148
0.0
 69
0
 70
0
 71
0
 72
0
 73
0
 74
0
 75
0
 76
0
 77
1
 78
0
 79
0
170
0
171
3
172
1
173
0
174
0
175
0
176
0
177
0
178
0
179
2
271
2
272
2
273
2
274
3
275
0
276
0
277
2
278
46
279
0
280
0
281
0
282
0
283
0
284
8
285
0
286
0
288
0
289
3
290
0
371
-2
372
-2
1001
KENTOS
1002
{
1000
look
1000
{"id":"0192f1a0-0000-7000-8000-0000000000d5","name":"Oksuz","height":2.5,"arrow":"none"}
1002
}
  0
ENDTAB
  0
TABLE
  2
BLOCK_RECORD
  5
9
330
0
100
AcDbSymbolTable
 70
11
  0
BLOCK_RECORD
  5
17
330
9
100
AcDbSymbolTableRecord
100
AcDbBlockTableRecord
  2
*Model_Space
340
1A
 70
0
280
1
281
0
  0
BLOCK_RECORD
  5
1B
330
9
100
AcDbSymbolTableRecord
100
AcDbBlockTableRecord
  2
*Paper_Space
340
1E
 70
0
280
1
281
0
  0
BLOCK_RECORD
  5
30
330
9
100
AcDbSymbolTableRecord
100
AcDbBlockTableRecord
  2
*D1
340
0
 70
0
280
1
281
0
  0
BLOCK_RECORD
  5
2E
330
9
100
AcDbSymbolTableRecord
100
AcDbBlockTableRecord
  2
Pafta başlığı
340
0
 70
0
280
1
281
0
  0
BLOCK_RECORD
  5
42
330
9
100
AcDbSymbolTableRecord
100
AcDbBlockTableRecord
  2
*D2
340
0
 70
0
280
1
281
0
  0
BLOCK_RECORD
  5
4C
330
9
100
AcDbSymbolTableRecord
100
AcDbBlockTableRecord
  2
*D3
340
0
 70
0
280
1
281
0
  0
BLOCK_RECORD
  5
56
330
9
100
AcDbSymbolTableRecord
100
AcDbBlockTableRecord
  2
*D4
340
0
 70
0
280
1
281
0
  0
BLOCK_RECORD
  5
60
330
9
100
AcDbSymbolTableRecord
100
AcDbBlockTableRecord
  2
*D5
340
0
 70
0
280
1
281
0
  0
BLOCK_RECORD
  5
67
330
9
100
AcDbSymbolTableRecord
100
AcDbBlockTableRecord
  2
*D6
340
0
 70
0
280
1
281
0
  0
BLOCK_RECORD
  5
73
330
9
100
AcDbSymbolTableRecord
100
AcDbBlockTableRecord
  2
*D7
340
0
 70
0
280
1
281
0
  0
BLOCK_RECORD
  5
7B
330
9
100
AcDbSymbolTableRecord
100
AcDbBlockTableRecord
  2
*D8
340
0
 70
0
280
1
281
0
  0
ENDTAB
  0
ENDSEC
  0
SECTION
  2
BLOCKS
  0
BLOCK
  5
18
330
17
100
AcDbEntity
  8
0
100
AcDbBlockBegin
  2
*Model_Space
 70
0
 10
0.0
 20
0.0
 30
0.0
  3
*Model_Space
  1

  0
ENDBLK
  5
19
330
17
100
AcDbEntity
  8
0
100
AcDbBlockEnd
  0
BLOCK
  5
1C
330
1B
100
AcDbEntity
  8
0
100
AcDbBlockBegin
  2
*Paper_Space
 70
0
 10
0.0
 20
0.0
 30
0.0
  3
*Paper_Space
  1

  0
ENDBLK
  5
1D
330
1B
100
AcDbEntity
  8
0
100
AcDbBlockEnd
  0
BLOCK
  5
31
330
30
100
AcDbEntity
  8
0
100
AcDbBlockBegin
  2
*D1
 70
1
 10
0.0
 20
0.0
 30
0.0
  3
*D1
  1

  0
LINE
  5
32
330
30
100
AcDbEntity
  8
0
 62
0
100
AcDbLine
 10
0.0
 20
-4.0
 30
0.0
 11
0.0
 21
-1.5
 31
0.0
  0
LINE
  5
33
330
30
100
AcDbEntity
  8
0
 62
0
100
AcDbLine
 10
20.0
 20
-4.0
 30
0.0
 11
20.0
 21
-1.5
 31
0.0
  0
LINE
  5
34
330
30
100
AcDbEntity
  8
0
 62
0
100
AcDbLine
 10
0.0
 20
-3.0
 30
0.0
 11
20.0
 21
-3.0
 31
0.0
  0
SOLID
  5
35
330
30
100
AcDbEntity
  8
0
 62
0
100
AcDbTrace
 10
0.0
 20
-3.0
 30
0.0
 11
2.5
 21
-2.5833333333333335
 31
0.0
 12
2.5
 22
-3.4166666666666665
 32
0.0
 13
2.5
 23
-3.4166666666666665
 33
0.0
  0
SOLID
  5
36
330
30
100
AcDbEntity
  8
0
 62
0
100
AcDbTrace
 10
20.0
 20
-3.0
 30
0.0
 11
17.5
 21
-3.4166666666666665
 31
0.0
 12
17.5
 22
-2.5833333333333335
 32
0.0
 13
17.5
 23
-2.5833333333333335
 33
0.0
  0
MTEXT
  5
37
330
30
100
AcDbEntity
  8
0
 62
0
100
AcDbMText
 10
10.0
 20
-1.2000000000000002
 30
0.0
 40
2.0
 41
0.0
 71
5
 72
1
  1
2000.00 cm
  7
KENTOS_ARIMO
 11
1.0
 21
0.0
 31
0.0
  0
ENDBLK
  5
38
330
30
100
AcDbEntity
  8
0
100
AcDbBlockEnd
  0
BLOCK
  5
3A
330
2E
100
AcDbEntity
  8
0
100
AcDbBlockBegin
  2
Pafta başlığı
 70
0
 10
0.0
 20
0.0
 30
0.0
  3
Pafta başlığı
  1

  0
TEXT
  5
2F
330
2E
100
AcDbEntity
  8
0
 62
0
370
-2
100
AcDbText
 10
0.0
 20
0.0
 30
0.0
 40
3.0
  1
Pafta
 41
0.9
  7
Ada no
100
AcDbText
1001
KENTOS
1002
{
1000
face
1000
{"textStyle":"0192f1a0-0000-7000-8000-000000000001","font":"arimo","bold":true}
1002
}
  0
DIMENSION
  5
39
330
2E
100
AcDbEntity
  8
0
 62
0
370
-2
100
AcDbDimension
  2
*D1
 10
20.0
 20
-3.0
 30
0.0
 11
10.0
 21
-1.2000000000000002
 31
0.0
 70
33
 71
5
 42
20.0
  1
2000.00 cm
  3
Mimari
100
AcDbAlignedDimension
 13
0.0
 23
-5.0
 33
0.0
 14
20.0
 24
-5.0
 34
0.0
 50
0.0
1001
ACAD
1000
DSTYLE
1002
{
1070
140
1040
2.0
1070
142
1040
0.0
1070
41
1040
2.5
1070
42
1040
1.0
1070
44
1040
1.5
1070
147
1040
0.8
1070
77
1070
1
1070
73
1070
0
1070
74
1070
0
1070
271
1070
2
1070
275
1070
2
1070
179
1070
4
1070
3
1000
<> cm
1070
144
1040
100.0
1002
}
1001
KENTOS
1002
{
1000
look
1000
{"dimStyle":"0192f1a0-0000-7000-8000-0000000000d1","arrow":"closed","arrowSize":1.25,"extBeyond":0.75,"textGap":0.4,"decimals":2,"unit":"cm","suffix":" cm","font":"arimo"}
1002
}
1002
{
1000
dimension
1000

1040
2.0
1040
2.0
1002
}
  0
ENDBLK
  5
3B
330
2E
100
AcDbEntity
  8
0
100
AcDbBlockEnd
  0
BLOCK
  5
43
330
42
100
AcDbEntity
  8
0
100
AcDbBlockBegin
  2
*D2
 70
1
 10
0.0
 20
0.0
 30
0.0
  3
*D2
  1

  0
LINE
  5
44
330
42
100
AcDbEntity
  8
0
 62
0
100
AcDbLine
 10
452300.0
 20
4412301.0
 30
0.0
 11
452300.0
 21
4412304.5
 31
0.0
  0
LINE
  5
45
330
42
100
AcDbEntity
  8
0
 62
0
100
AcDbLine
 10
452312.5
 20
4412301.0
 30
0.0
 11
452312.5
 21
4412304.5
 31
0.0
  0
LINE
  5
46
330
42
100
AcDbEntity
  8
0
 62
0
100
AcDbLine
 10
452300.0
 20
4412303.0
 30
0.0
 11
452312.5
 21
4412303.0
 31
0.0
  0
SOLID
  5
47
330
42
100
AcDbEntity
  8
0
 62
0
100
AcDbTrace
 10
452300.0
 20
4412303.0
 30
0.0
 11
452302.5
 21
4412303.416666667
 31
0.0
 12
452302.5
 22
4412302.583333333
 32
0.0
 13
452302.5
 23
4412302.583333333
 33
0.0
  0
SOLID
  5
48
330
42
100
AcDbEntity
  8
0
 62
0
100
AcDbTrace
 10
452312.5
 20
4412303.0
 30
0.0
 11
452310.0
 21
4412302.583333333
 31
0.0
 12
452310.0
 22
4412303.416666667
 32
0.0
 13
452310.0
 23
4412303.416666667
 33
0.0
  0
MTEXT
  5
49
330
42
100
AcDbEntity
  8
0
 62
0
100
AcDbMText
 10
452306.25
 20
4412304.8
 30
0.0
 40
2.0
 41
0.0
 71
5
 72
1
  1
1250.00 cm
  7
KENTOS_ARIMO
 11
1.0
 21
0.0
 31
0.0
  0
ENDBLK
  5
4A
330
42
100
AcDbEntity
  8
0
100
AcDbBlockEnd
  0
BLOCK
  5
4D
330
4C
100
AcDbEntity
  8
0
100
AcDbBlockBegin
  2
*D3
 70
1
 10
0.0
 20
0.0
 30
0.0
  3
*D3
  1

  0
LINE
  5
4E
330
4C
100
AcDbEntity
  8
0
 62
0
100
AcDbLine
 10
452300.0
 20
4412321.5
 30
0.0
 11
452300.0
 21
4412325.5
 31
0.0
  0
LINE
  5
4F
330
4C
100
AcDbEntity
  8
0
 62
0
100
AcDbLine
 10
452325.125
 20
4412321.5
 30
0.0
 11
452325.125
 21
4412325.5
 31
0.0
  0
LINE
  5
50
330
4C
100
AcDbEntity
  8
0
 62
0
100
AcDbLine
 10
452300.0
 20
4412324.0
 30
0.0
 11
452325.125
 21
4412324.0
 31
0.0
  0
LINE
  5
51
330
4C
100
AcDbEntity
  8
0
 62
0
100
AcDbLine
 10
452299.15147186257
 20
4412323.151471863
 30
0.0
 11
452300.84852813743
 21
4412324.848528137
 31
0.0
  0
LINE
  5
52
330
4C
100
AcDbEntity
  8
0
 62
0
100
AcDbLine
 10
452324.27647186257
 20
4412323.151471863
 30
0.0
 11
452325.97352813743
 21
4412324.848528137
 31
0.0
  0
MTEXT
  5
53
330
4C
100
AcDbEntity
  8
0
 62
0
100
AcDbMText
 10
452312.5625
 20
4412324.45
 30
0.0
 40
3.0
 41
0.0
 71
5
 72
1
  1
L=25.125
  7
Standard
 11
1.0
 21
0.0
 31
0.0
  0
ENDBLK
  5
54
330
4C
100
AcDbEntity
  8
0
100
AcDbBlockEnd
  0
BLOCK
  5
57
330
56
100
AcDbEntity
  8
0
100
AcDbBlockBegin
  2
*D4
 70
1
 10
0.0
 20
0.0
 30
0.0
  3
*D4
  1

  0
LINE
  5
58
330
56
100
AcDbEntity
  8
0
 62
0
100
AcDbLine
 10
452300.0
 20
4412341.5
 30
0.0
 11
452300.0
 21
4412345.5
 31
0.0
  0
LINE
  5
59
330
56
100
AcDbEntity
  8
0
 62
0
100
AcDbLine
 10
452325.1
 20
4412341.5
 30
0.0
 11
452325.1
 21
4412345.5
 31
0.0
  0
LINE
  5
5A
330
56
100
AcDbEntity
  8
0
 62
0
100
AcDbLine
 10
452300.0
 20
4412344.0
 30
0.0
 11
452325.1
 21
4412344.0
 31
0.0
  0
LINE
  5
5B
330
56
100
AcDbEntity
  8
0
 62
0
100
AcDbLine
 10
452299.15147186257
 20
4412343.151471863
 30
0.0
 11
452300.84852813743
 21
4412344.848528137
 31
0.0
  0
LINE
  5
5C
330
56
100
AcDbEntity
  8
0
 62
0
100
AcDbLine
 10
452324.25147186255
 20
4412343.151471863
 30
0.0
 11
452325.9485281374
 21
4412344.848528137
 31
0.0
  0
MTEXT
  5
5D
330
56
100
AcDbEntity
  8
0
 62
0
100
AcDbMText
 10
452312.55
 20
4412344.45
 30
0.0
 40
3.0
 41
0.0
 71
5
 72
1
  1
L=25.10
  7
Standard
 11
1.0
 21
0.0
 31
0.0
  0
ENDBLK
  5
5E
330
56
100
AcDbEntity
  8
0
100
AcDbBlockEnd
  0
BLOCK
  5
61
330
60
100
AcDbEntity
  8
0
100
AcDbBlockBegin
  2
*D5
 70
1
 10
0.0
 20
0.0
 30
0.0
  3
*D5
  1

  0
LINE
  5
62
330
60
100
AcDbEntity
  8
0
 62
0
100
AcDbLine
 10
452400.0
 20
4412300.0
 30
0.0
 11
452407.2
 21
4412309.6
 31
0.0
  0
LWPOLYLINE
  5
63
330
60
100
AcDbEntity
  8
0
 62
0
100
AcDbPolyline
 90
2
 70
1
 43
0.37499999994179234
 10
452405.8125000001
 20
4412307.999999999
 42
1.0
 10
452406.1875
 20
4412307.999999999
 42
1.0
  0
MTEXT
  5
64
330
60
100
AcDbEntity
  8
0
 62
0
100
AcDbMText
 10
452401.3
 20
4412305.275
 30
0.0
 40
2.5
 41
0.0
 71
5
 72
1
  1
R 10.000
  7
Standard
 11
0.6
 21
0.8
 31
0.0
  0
ENDBLK
  5
65
330
60
100
AcDbEntity
  8
0
100
AcDbBlockEnd
  0
BLOCK
  5
68
330
67
100
AcDbEntity
  8
0
100
AcDbBlockBegin
  2
*D6
 70
1
 10
0.0
 20
0.0
 30
0.0
  3
*D6
  1

  0
LINE
  5
69
330
67
100
AcDbEntity
  8
0
 62
0
100
AcDbLine
 10
452300.0
 20
4412361.25
 30
0.0
 11
452300.0
 21
4412364.25
 31
0.0
  0
LINE
  5
6A
330
67
100
AcDbEntity
  8
0
 62
0
100
AcDbLine
 10
452310.0
 20
4412361.25
 30
0.0
 11
452310.0
 21
4412364.25
 31
0.0
  0
LINE
  5
6B
330
67
100
AcDbEntity
  8
0
 62
0
100
AcDbLine
 10
452300.0
 20
4412363.0
 30
0.0
 11
452310.0
 21
4412363.0
 31
0.0
  0
LINE
  5
6C
330
67
100
AcDbEntity
  8
0
 62
0
100
AcDbLine
 10
452302.5
 20
4412363.416666667
 30
0.0
 11
452300.0
 21
4412363.0
 31
0.0
  0
LINE
  5
6D
330
67
100
AcDbEntity
  8
0
 62
0
100
AcDbLine
 10
452300.0
 20
4412363.0
 30
0.0
 11
452302.5
 21
4412362.583333333
 31
0.0
  0
LINE
  5
6E
330
67
100
AcDbEntity
  8
0
 62
0
100
AcDbLine
 10
452307.5
 20
4412362.583333333
 30
0.0
 11
452310.0
 21
4412363.0
 31
0.0
  0
LINE
  5
6F
330
67
100
AcDbEntity
  8
0
 62
0
100
AcDbLine
 10
452310.0
 20
4412363.0
 30
0.0
 11
452307.5
 21
4412363.416666667
 31
0.0
  0
MTEXT
  5
70
330
67
100
AcDbEntity
  8
0
 62
0
100
AcDbMText
 10
452305.0
 20
4412365.125
 30
0.0
 40
2.5
 41
0.0
 71
5
 72
1
  1
10.000
  7
Standard
 11
1.0
 21
0.0
 31
0.0
  0
ENDBLK
  5
71
330
67
100
AcDbEntity
  8
0
100
AcDbBlockEnd
  0
BLOCK
  5
74
330
73
100
AcDbEntity
  8
0
100
AcDbBlockBegin
  2
*D7
 70
1
 10
0.0
 20
0.0
 30
0.0
  3
*D7
  1

  0
LINE
  5
75
330
73
100
AcDbEntity
  8
0
 62
0
100
AcDbLine
 10
452330.0
 20
4412361.25
 30
0.0
 11
452330.0
 21
4412364.25
 31
0.0
  0
LINE
  5
76
330
73
100
AcDbEntity
  8
0
 62
0
100
AcDbLine
 10
452338.0
 20
4412361.25
 30
0.0
 11
452338.0
 21
4412364.25
 31
0.0
  0
LINE
  5
77
330
73
100
AcDbEntity
  8
0
 62
0
100
AcDbLine
 10
452330.0
 20
4412363.0
 30
0.0
 11
452338.0
 21
4412363.0
 31
0.0
  0
MTEXT
  5
78
330
73
100
AcDbEntity
  8
0
 62
0
100
AcDbMText
 10
452334.0
 20
4412365.125
 30
0.0
 40
2.5
 41
0.0
 71
5
 72
1
  1
8.000
  7
Standard
 11
1.0
 21
0.0
 31
0.0
  0
ENDBLK
  5
79
330
73
100
AcDbEntity
  8
0
100
AcDbBlockEnd
  0
BLOCK
  5
7C
330
7B
100
AcDbEntity
  8
0
100
AcDbBlockBegin
  2
*D8
 70
1
 10
0.0
 20
0.0
 30
0.0
  3
*D8
  1

  0
LINE
  5
7D
330
7B
100
AcDbEntity
  8
0
 62
0
100
AcDbLine
 10
452350.0
 20
4412361.25
 30
0.0
 11
452350.0
 21
4412364.25
 31
0.0
  0
LINE
  5
7E
330
7B
100
AcDbEntity
  8
0
 62
0
100
AcDbLine
 10
452358.0
 20
4412361.25
 30
0.0
 11
452358.0
 21
4412364.25
 31
0.0
  0
LINE
  5
7F
330
7B
100
AcDbEntity
  8
0
 62
0
100
AcDbLine
 10
452350.0
 20
4412363.0
 30
0.0
 11
452358.0
 21
4412363.0
 31
0.0
  0
LINE
  5
80
330
7B
100
AcDbEntity
  8
0
 62
0
100
AcDbLine
 10
452349.4696699141
 20
4412362.469669914
 30
0.0
 11
452350.5303300859
 21
4412363.530330086
 31
0.0
  0
LINE
  5
81
330
7B
100
AcDbEntity
  8
0
 62
0
100
AcDbLine
 10
452357.4696699141
 20
4412362.469669914
 30
0.0
 11
452358.5303300859
 21
4412363.530330086
 31
0.0
  0
MTEXT
  5
82
330
7B
100
AcDbEntity
  8
0
 62
0
100
AcDbMText
 10
452354.0
 20
4412365.125
 30
0.0
 40
2.5
 41
0.0
 71
5
 72
1
  1
8.000
  7
Standard
 11
1.0
 21
0.0
 31
0.0
  0
ENDBLK
  5
83
330
7B
100
AcDbEntity
  8
0
100
AcDbBlockEnd
  0
ENDSEC
  0
SECTION
  2
ENTITIES
  0
TEXT
  5
3C
330
17
100
AcDbEntity
  8
Yazı
100
AcDbText
 10
452300.0
 20
4412400.0
 30
0.0
 40
3.0
  1
Ada 101
 41
0.9
  7
Ada no
100
AcDbText
1001
KENTOS
1002
{
1000
face
1000
{"textStyle":"0192f1a0-0000-7000-8000-000000000001","font":"arimo","bold":true}
1002
}
  0
TEXT
  5
3D
330
17
100
AcDbEntity
  8
Yazı
100
AcDbText
 10
452300.0
 20
4412392.0
 30
0.0
 40
3.0
  1
Ada 102
 41
0.9
  7
Ada no
 51
10.0
100
AcDbText
1001
KENTOS
1002
{
1000
face
1000
{"textStyle":"0192f1a0-0000-7000-8000-000000000001","font":"arimo","bold":true,"oblique":10.0}
1002
}
  0
TEXT
  5
3E
330
17
100
AcDbEntity
  8
Yazı
100
AcDbText
 10
452330.0
 20
4412392.0
 30
0.0
 40
2.5
  1
Atatürk Caddesi
 50
30.0
  7
Yol adı
 51
15.0
100
AcDbText
1001
KENTOS
1002
{
1000
face
1000
{"textStyle":"0192f1a0-0000-7000-8000-000000000002","font":"barlow","italic":true,"oblique":15.0}
1002
}
  0
TEXT
  5
3F
330
17
100
AcDbEntity
  8
Yazı
100
AcDbText
 10
452300.0
 20
4412384.0
 30
0.0
 40
2.0
  1
Not: ölçüler metredir
  7
KENTOS_QUICKSAND_B
100
AcDbText
1001
KENTOS
1002
{
1000
face
1000
{"font":"quicksand","bold":true}
1002
}
  0
TEXT
  5
40
330
17
100
AcDbEntity
  8
Yazı
100
AcDbText
 10
452300.0
 20
4412378.0
 30
0.0
 40
2.0
  1
Standart yazı
100
AcDbText
  0
MTEXT
  5
41
330
17
100
AcDbEntity
  8
Yazı
100
AcDbMText
 10
452360.0
 20
4412400.0
 30
0.0
 40
2.0
 41
30.0
 71
1
 72
1
  1
Not\Pikinci satır
  7
Not
 11
1.0
 21
0.0
 31
0.0
1001
KENTOS
1002
{
1000
face
1000
{"textStyle":"0192f1a0-0000-7000-8000-000000000003","font":"courier-prime","bold":true,"italic":true}
1002
}
  0
DIMENSION
  5
4B
330
17
100
AcDbEntity
  8
Ölçü
100
AcDbDimension
  2
*D2
 10
452312.5
 20
4412303.0
 30
0.0
 11
452306.25
 21
4412304.8
 31
0.0
 70
33
 71
5
 42
12.5
  1

  3
Mimari
100
AcDbAlignedDimension
 13
452300.0
 23
4412300.0
 33
0.0
 14
452312.5
 24
4412300.0
 34
0.0
 50
0.0
1001
ACAD
1000
DSTYLE
1002
{
1070
140
1040
2.0
1070
142
1040
0.0
1070
41
1040
2.5
1070
42
1040
1.0
1070
44
1040
1.5
1070
147
1040
0.8
1070
77
1070
1
1070
73
1070
0
1070
74
1070
0
1070
271
1070
2
1070
275
1070
2
1070
179
1070
4
1070
3
1000
<> cm
1070
144
1040
100.0
1002
}
1001
KENTOS
1002
{
1000
look
1000
{"dimStyle":"0192f1a0-0000-7000-8000-0000000000d1","arrow":"closed","arrowSize":1.25,"extBeyond":0.75,"textGap":0.4,"decimals":2,"unit":"cm","suffix":" cm","font":"arimo"}
1002
}
1002
{
1000
dimension
1000

1040
3.0
1040
2.0
1002
}
  0
DIMENSION
  5
55
330
17
100
AcDbEntity
  8
Ölçü
100
AcDbDimension
  2
*D3
 10
452325.125
 20
4412324.0
 30
0.0
 11
452312.5625
 21
4412324.45
 31
0.0
 70
33
 71
5
 42
25.125
  1

  3
Kadastro
100
AcDbAlignedDimension
 13
452300.0
 23
4412320.0
 33
0.0
 14
452325.125
 24
4412320.0
 34
0.0
 50
0.0
1001
ACAD
1000
DSTYLE
1002
{
1070
140
1040
3.0
1070
142
1040
1.6970562748477145
1070
42
1040
1.5
1070
44
1040
1.5
1070
147
1040
1.0499999999999998
1070
77
1070
0
1070
73
1070
0
1070
74
1070
0
1070
271
1070
3
1070
275
1070
2
1070
179
1070
4
1070
3
1000
L=<>
1002
}
1001
KENTOS
1002
{
1000
look
1000
{"dimStyle":"0192f1a0-0000-7000-8000-0000000000d2","arrowSize":0.8,"textPlace":"centre","decimals":3,"prefix":"L="}
1002
}
1002
{
1000
dimension
1000

1040
4.0
1040
3.0
1002
}
  0
DIMENSION
  5
5F
330
17
100
AcDbEntity
  8
Ölçü
100
AcDbDimension
  2
*D4
 10
452325.1
 20
4412344.0
 30
0.0
 11
452312.55
 21
4412344.45
 31
0.0
 70
33
 71
5
 42
25.099999999976717
  1

  3
Kadastro
100
AcDbAlignedDimension
 13
452300.0
 23
4412340.0
 33
0.0
 14
452325.1
 24
4412340.0
 34
0.0
 50
0.0
1001
ACAD
1000
DSTYLE
1002
{
1070
140
1040
3.0
1070
142
1040
1.6970562748477145
1070
42
1040
1.5
1070
44
1040
1.5
1070
147
1040
1.0499999999999998
1070
77
1070
0
1070
73
1070
0
1070
74
1070
0
1070
271
1070
2
1070
275
1070
2
1070
179
1070
4
1070
3
1000
L=<>
1002
}
1001
KENTOS
1002
{
1000
look
1000
{"dimStyle":"0192f1a0-0000-7000-8000-0000000000d2","arrowSize":0.8,"textPlace":"centre","decimals":2,"prefix":"L="}
1002
}
1002
{
1000
dimension
1000

1040
4.0
1040
3.0
1002
}
  0
DIMENSION
  5
66
330
17
100
AcDbEntity
  8
Ölçü
100
AcDbDimension
  2
*D5
 10
452400.0
 20
4412300.0
 30
0.0
 11
452401.3
 21
4412305.275
 31
0.0
 70
36
 71
5
 42
10.0
  1

  3
Noktalı
100
AcDbRadialDimension
 15
452406.0
 25
4412308.0
 35
0.0
 40
2.0
1001
ACAD
1000
DSTYLE
1002
{
1070
140
1040
2.5
1070
142
1040
0.0
1070
41
1040
1.5
1070
42
1040
1.25
1070
44
1040
1.25
1070
147
1040
0.875
1070
77
1070
1
1070
73
1070
0
1070
74
1070
0
1070
271
1070
3
1070
275
1070
2
1070
179
1070
4
1002
}
1001
KENTOS
1002
{
1000
look
1000
{"dimStyle":"0192f1a0-0000-7000-8000-0000000000d3","arrow":"dot","arrowSize":0.6}
1002
}
1002
{
1000
dimension
1000
radius
1040
2.0
1040
2.5
1002
}
  0
DIMENSION
  5
72
330
17
100
AcDbEntity
  8
Ölçü
100
AcDbDimension
  2
*D6
 10
452310.0
 20
4412363.0
 30
0.0
 11
452305.0
 21
4412365.125
 31
0.0
 70
33
 71
5
 42
10.0
  1

  3
Açık
100
AcDbAlignedDimension
 13
452300.0
 23
4412360.0
 33
0.0
 14
452310.0
 24
4412360.0
 34
0.0
 50
0.0
1001
ACAD
1000
DSTYLE
1002
{
1070
140
1040
2.5
1070
142
1040
0.0
1070
41
1040
2.5
1070
42
1040
1.25
1070
44
1040
1.25
1070
147
1040
0.875
1070
77
1070
1
1070
73
1070
0
1070
74
1070
0
1070
271
1070
3
1070
275
1070
2
1070
179
1070
4
1002
}
1001
KENTOS
1002
{
1000
look
1000
{"dimStyle":"0192f1a0-0000-7000-8000-0000000000d4","arrow":"open"}
1002
}
1002
{
1000
dimension
1000

1040
3.0
1040
2.5
1002
}
  0
DIMENSION
  5
7A
330
17
100
AcDbEntity
  8
Ölçü
100
AcDbDimension
  2
*D7
 10
452338.0
 20
4412363.0
 30
0.0
 11
452334.0
 21
4412365.125
 31
0.0
 70
33
 71
5
 42
8.0
  1

  3
Oksuz
100
AcDbAlignedDimension
 13
452330.0
 23
4412360.0
 33
0.0
 14
452338.0
 24
4412360.0
 34
0.0
 50
0.0
1001
ACAD
1000
DSTYLE
1002
{
1070
140
1040
2.5
1070
142
1040
0.0
1070
41
1040
0.0
1070
42
1040
1.25
1070
44
1040
1.25
1070
147
1040
0.875
1070
77
1070
1
1070
73
1070
0
1070
74
1070
0
1070
271
1070
3
1070
275
1070
2
1070
179
1070
4
1002
}
1001
KENTOS
1002
{
1000
look
1000
{"dimStyle":"0192f1a0-0000-7000-8000-0000000000d5","arrow":"none"}
1002
}
1002
{
1000
dimension
1000

1040
3.0
1040
2.5
1002
}
  0
DIMENSION
  5
84
330
17
100
AcDbEntity
  8
Ölçü
100
AcDbDimension
  2
*D8
 10
452358.0
 20
4412363.0
 30
0.0
 11
452354.0
 21
4412365.125
 31
0.0
 70
33
 71
5
 42
8.0
  1

  3
Standard
100
AcDbAlignedDimension
 13
452350.0
 23
4412360.0
 33
0.0
 14
452358.0
 24
4412360.0
 34
0.0
 50
0.0
1001
ACAD
1000
DSTYLE
1002
{
1070
140
1040
2.5
1070
142
1040
1.0606601717798214
1070
42
1040
1.25
1070
44
1040
1.25
1070
147
1040
0.875
1070
77
1070
1
1070
73
1070
0
1070
74
1070
0
1070
271
1070
3
1070
275
1070
2
1070
179
1070
4
1002
}
1001
KENTOS
1002
{
1000
dimension
1000

1040
3.0
1040
2.5
1002
}
  0
INSERT
  5
85
330
17
100
AcDbEntity
  8
Yazı
100
AcDbBlockReference
  2
Pafta başlığı
 10
452500.0
 20
4412400.0
 30
0.0
 41
1.0
 42
1.0
 43
1.0
 50
0.0
  0
ENDSEC
  0
SECTION
  2
OBJECTS
  0
DICTIONARY
  5
A
330
0
100
AcDbDictionary
281
1
  3
ACAD_COLOR
350
B
  3
ACAD_GROUP
350
C
  3
ACAD_LAYOUT
350
D
  3
ACAD_MATERIAL
350
E
  3
ACAD_MLEADERSTYLE
350
F
  3
ACAD_MLINESTYLE
350
10
  3
ACAD_PLOTSETTINGS
350
11
  3
ACAD_PLOTSTYLENAME
350
12
  3
ACAD_SCALELIST
350
14
  3
ACAD_TABLESTYLE
350
15
  3
ACAD_VISUALSTYLE
350
16
  0
DICTIONARY
  5
B
330
A
100
AcDbDictionary
281
1
  0
DICTIONARY
  5
C
330
A
100
AcDbDictionary
281
1
  0
DICTIONARY
  5
D
330
A
100
AcDbDictionary
281
1
  3
Model
350
1A
  3
Layout1
350
1E
  0
DICTIONARY
  5
E
330
A
100
AcDbDictionary
281
1
  3
ByBlock
350
1F
  3
ByLayer
350
20
  3
Global
350
21
  0
DICTIONARY
  5
F
330
A
100
AcDbDictionary
281
1
  3
Standard
350
2C
  0
DICTIONARY
  5
10
330
A
100
AcDbDictionary
281
1
  3
Standard
350
22
  0
DICTIONARY
  5
11
330
A
100
AcDbDictionary
281
1
  0
ACDBDICTIONARYWDFLT
  5
12
330
A
100
AcDbDictionary
281
1
  3
Normal
350
13
100
AcDbDictionaryWithDefault
340
13
  0
ACDBPLACEHOLDER
  5
13
330
12
  0
DICTIONARY
  5
14
330
A
100
AcDbDictionary
281
1
  0
DICTIONARY
  5
15
330
A
100
AcDbDictionary
281
1
  0
DICTIONARY
  5
16
330
A
100
AcDbDictionary
281
1
  0
LAYOUT
  5
1A
330
D
100
AcDbPlotSettings
  1

  4
A3
  6

 40
7.5
 41
20.0
 42
7.5
 43
20.0
 44
420.0
 45
297.0
 46
0.0
 47
0.0
 48
0.0
 49
0.0
140
0.0
141
0.0
142
1.0
143
1.0
 70
1024
 72
1
 73
0
 74
5
  7

 75
16
 76
0
 77
2
 78
300
147
1.0
148
0.0
149
0.0
100
AcDbLayout
  1
Model
 70
1
 71
0
 10
0.0
 20
0.0
 11
420.0
 21
297.0
 12
0.0
 22
0.0
 32
0.0
 14
1.0E+20
 24
1.0E+20
 34
1.0E+20
 15
-1.0E+20
 25
-1.0E+20
 35
-1.0E+20
146
0.0
 13
0.0
 23
0.0
 33
0.0
 16
1.0
 26
0.0
 36
0.0
 17
0.0
 27
1.0
 37
0.0
 76
1
330
17
  0
LAYOUT
  5
1E
330
D
100
AcDbPlotSettings
  1

  4
A3
  6

 40
7.5
 41
20.0
 42
7.5
 43
20.0
 44
420.0
 45
297.0
 46
0.0
 47
0.0
 48
0.0
 49
0.0
140
0.0
141
0.0
142
1.0
143
1.0
 70
0
 72
1
 73
0
 74
5
  7

 75
16
 76
0
 77
2
 78
300
147
1.0
148
0.0
149
0.0
100
AcDbLayout
  1
Layout1
 70
1
 71
1
 10
0.0
 20
0.0
 11
420.0
 21
297.0
 12
0.0
 22
0.0
 32
0.0
 14
1.0E+20
 24
1.0E+20
 34
1.0E+20
 15
-1.0E+20
 25
-1.0E+20
 35
-1.0E+20
146
0.0
 13
0.0
 23
0.0
 33
0.0
 16
1.0
 26
0.0
 36
0.0
 17
0.0
 27
1.0
 37
0.0
 76
1
330
1B
  0
MATERIAL
  5
1F
102
{ACAD_REACTORS
330
E
102
}
330
E
100
AcDbMaterial
  1
ByBlock
  2

 70
0
 40
1.0
 71
1
 41
1.0
 91
-1023410177
 42
1.0
 72
1
  3

 73
1
 74
1
 75
1
 44
0.5
 73
0
 45
1.0
 46
1.0
 77
1
  4

 78
1
 79
1
170
1
 48
1.0
171
1
  6

172
1
173
1
174
1
140
1.0
141
1.0
175
1
  7

176
1
177
1
178
1
143
1.0
179
1
  8

270
1
271
1
272
1
145
1.0
146
1.0
273
1
  9

274
1
275
1
276
1
 42
1.0
 72
1
  3

 73
1
 74
1
 75
1
 94
63
  0
MATERIAL
  5
20
102
{ACAD_REACTORS
330
E
102
}
330
E
100
AcDbMaterial
  1
ByLayer
  2

 70
0
 40
1.0
 71
1
 41
1.0
 91
-1023410177
 42
1.0
 72
1
  3

 73
1
 74
1
 75
1
 44
0.5
 73
0
 45
1.0
 46
1.0
 77
1
  4

 78
1
 79
1
170
1
 48
1.0
171
1
  6

172
1
173
1
174
1
140
1.0
141
1.0
175
1
  7

176
1
177
1
178
1
143
1.0
179
1
  8

270
1
271
1
272
1
145
1.0
146
1.0
273
1
  9

274
1
275
1
276
1
 42
1.0
 72
1
  3

 73
1
 74
1
 75
1
 94
63
  0
MATERIAL
  5
21
102
{ACAD_REACTORS
330
E
102
}
330
E
100
AcDbMaterial
  1
Global
  2

 70
0
 40
1.0
 71
1
 41
1.0
 91
-1023410177
 42
1.0
 72
1
  3

 73
1
 74
1
 75
1
 44
0.5
 73
0
 45
1.0
 46
1.0
 77
1
  4

 78
1
 79
1
170
1
 48
1.0
171
1
  6

172
1
173
1
174
1
140
1.0
141
1.0
175
1
  7

176
1
177
1
178
1
143
1.0
179
1
  8

270
1
271
1
272
1
145
1.0
146
1.0
273
1
  9

274
1
275
1
276
1
 42
1.0
 72
1
  3

 73
1
 74
1
 75
1
 94
63
  0
MLINESTYLE
  5
22
102
{ACAD_REACTORS
330
10
102
}
330
10
100
AcDbMlineStyle
  2
Standard
 70
0
  3

 62
256
 51
90.0
 52
90.0
 71
2
 49
0.5
 62
256
  6
BYLAYER
 49
-0.5
 62
256
  6
BYLAYER
  0
MLEADERSTYLE
  5
2C
102
{ACAD_REACTORS
330
F
102
}
330
F
100
AcDbMLeaderStyle
179
2
170
2
171
1
172
0
 90
2
 40
0.0
 41
0.0
173
1
 91
-1056964608
 92
-2
290
1
 42
2.0
291
1
 43
8.0
  3
Standard
 44
4.0
300

342
29
174
1
175
1
176
0
178
1
 93
-1056964608
 45
4.0
292
0
297
0
 46
4.0
 94
-1056964608
 47
1.0
 49
1.0
140
1.0
294
1
141
0.0
177
0
142
1.0
295
0
296
0
143
3.75
271
0
272
9
273
9
  0
ENDSEC
  0
EOF
