  0
SECTION
  2
HEADER
  9
$ACADVER
  1
AC1021
  9
$ACADMAINTVER
 70
25
  9
$DWGCODEPAGE
  3
ANSI_1254
  9
$INSBASE
 10
0.0
 20
0.0
 30
0.0
  9
$EXTMIN
 10
452300.0
 20
4412290.0
 30
0.0
  9
$EXTMAX
 10
452479.8185750346
 20
4412376.25
 30
0.0
  9
$LIMMIN
 10
452300.0
 20
4412290.0
  9
$LIMMAX
 10
452479.8185750346
 20
4412376.25
  9
$LTSCALE
 40
1.0
  9
$TEXTSTYLE
  7
Standard
  9
$CLAYER
  8
0
  9
$CELTYPE
  6
ByLayer
  9
$CECOLOR
 62
256
  9
$CELTSCALE
 40
1.0
  9
$DIMSTYLE
  2
Standard
  9
$LUNITS
 70
2
  9
$LUPREC
 70
3
  9
$AUNITS
 70
2
  9
$AUPREC
 70
4
  9
$ANGBASE
 50
0.0
  9
$ANGDIR
 70
0
  9
$PDMODE
 70
0
  9
$PDSIZE
 40
0.0
  9
$HANDSEED
  5
66
  9
$TILEMODE
 70
1
  9
$MEASUREMENT
 70
1
  9
$CELWEIGHT
370
-1
  9
$LWDISPLAY
290
0
  9
$INSUNITS
 70
6
  9
$PSTYLEMODE
290
1
  9
$EXTNAMES
290
1
  0
ENDSEC
  0
SECTION
  2
CLASSES
  0
CLASS
  1
ACDBDICTIONARYWDFLT
  2
AcDbDictionaryWithDefault
  3
ObjectDBX Classes
 90
0
 91
0
280
0
281
0
  0
CLASS
  1
SUN
  2
AcDbSun
  3
SCENEOE
 90
1153
 91
0
280
0
281
0
  0
CLASS
  1
VISUALSTYLE
  2
AcDbVisualStyle
  3
ObjectDBX Classes
 90
4095
 91
0
280
0
281
0
  0
CLASS
  1
MATERIAL
  2
AcDbMaterial
  3
ObjectDBX Classes
 90
1153
 91
0
280
0
281
0
  0
CLASS
  1
SCALE
  2
AcDbScale
  3
ObjectDBX Classes
 90
1153
 91
0
280
0
281
0
  0
CLASS
  1
TABLESTYLE
  2
AcDbTableStyle
  3
ObjectDBX Classes
 90
4095
 91
0
280
0
281
0
  0
CLASS
  1
MLEADERSTYLE
  2
AcDbMLeaderStyle
  3
ACDB_MLEADERSTYLE_CLASS
 90
4095
 91
0
280
0
281
0
  0
CLASS
  1
DICTIONARYVAR
  2
AcDbDictionaryVar
  3
ObjectDBX Classes
 90
0
 91
0
280
0
281
0
  0
CLASS
  1
CELLSTYLEMAP
  2
AcDbCellStyleMap
  3
ObjectDBX Classes
 90
1152
 91
0
280
0
281
0
  0
CLASS
  1
MENTALRAYRENDERSETTINGS
  2
AcDbMentalRayRenderSettings
  3
SCENEOE
 90
1024
 91
0
280
0
281
0
  0
CLASS
  1
ACDBDETAILVIEWSTYLE
  2
AcDbDetailViewStyle
  3
ObjectDBX Classes
 90
1025
 91
0
280
0
281
0
  0
CLASS
  1
ACDBSECTIONVIEWSTYLE
  2
AcDbSectionViewStyle
  3
ObjectDBX Classes
 90
1025
 91
0
280
0
281
0
  0
CLASS
  1
RASTERVARIABLES
  2
AcDbRasterVariables
  3
ISM
 90
0
 91
0
280
0
281
0
  0
CLASS
  1
ACDBPLACEHOLDER
  2
AcDbPlaceHolder
  3
ObjectDBX Classes
 90
0
 91
0
280
0
281
0
  0
CLASS
  1
LAYOUT
  2
AcDbLayout
  3
ObjectDBX Classes
 90
0
 91
0
280
0
281
0
  0
ENDSEC
  0
SECTION
  2
TABLES
  0
TABLE
  2
VPORT
  5
8
330
0
100
AcDbSymbolTable
 70
1
  0
VPORT
  5
23
330
8
100
AcDbSymbolTableRecord
100
AcDbViewportTableRecord
  2
*Active
 70
0
 10
0.0
 20
0.0
 11
1.0
 21
1.0
 12
452389.9092875173
 22
4412333.125
 13
0.0
 23
0.0
 14
0.5
 24
0.5
 15
0.5
 25
0.5
 16
0.0
 26
0.0
 36
1.0
 17
0.0
 27
0.0
 37
0.0
 40
147.61226308811806
 41
1.34
 42
50.0
 43
0.0
 44
0.0
 50
0.0
 51
0.0
 71
0
 72
1000
 73
1
 74
3
 75
0
 76
0
 77
0
 78
0
281
0
 65
0
146
0.0
  0
ENDTAB
  0
TABLE
  2
LTYPE
  5
2
330
0
100
AcDbSymbolTable
 70
3
  0
LTYPE
  5
24
330
2
100
AcDbSymbolTableRecord
100
AcDbLinetypeTableRecord
  2
ByBlock
 70
0
  3

 72
65
 73
0
 40
0.0
  0
LTYPE
  5
25
330
2
100
AcDbSymbolTableRecord
100
AcDbLinetypeTableRecord
  2
ByLayer
 70
0
  3

 72
65
 73
0
 40
0.0
  0
LTYPE
  5
26
330
2
100
AcDbSymbolTableRecord
100
AcDbLinetypeTableRecord
  2
Continuous
 70
0
  3
Solid line
 72
65
 73
0
 40
0.0
  0
ENDTAB
  0
TABLE
  2
LAYER
  5
1
330
0
100
AcDbSymbolTable
 70
3
  0
LAYER
  5
27
330
1
100
AcDbSymbolTableRecord
100
AcDbLayerTableRecord
  2
0
 70
0
 62
7
  6
Continuous
370
-3
390
13
347
21
  0
LAYER
  5
63
330
1
100
AcDbSymbolTableRecord
100
AcDbLayerTableRecord
  2
Parsel
 70
0
 62
173
420
4088797
  6
Continuous
370
25
390
13
347
21
  0
LAYER
  5
64
330
1
100
AcDbSymbolTableRecord
100
AcDbLayerTableRecord
  2
Tablolar
 70
0
 62
151
420
8368869
  6
Continuous
370
25
390
13
347
21
  0
ENDTAB
  0
TABLE
  2
STYLE
  5
5
330
0
100
AcDbSymbolTable
 70
2
  0
STYLE
  5
29
330
5
100
AcDbSymbolTableRecord
100
AcDbTextStyleTableRecord
  2
Standard
 70
0
 40
0.0
 41
1.0
 50
0.0
 71
0
 42
2.5
  3
arial.ttf
  4

  0
STYLE
  5
65
330
5
100
AcDbSymbolTableRecord
100
AcDbTextStyleTableRecord
  2
KENTOS_ARIMO_B
 70
0
 40
0.0
 41
1.0
 50
0.0
 71
0
 42
2.5
  3
arialbd.ttf
  4

1001
ACAD
1000
Arial
1071
33554466
1001
KENTOS
1002
{
1000
face
1000
styleless
1002
}
  0
ENDTAB
  0
TABLE
  2
VIEW
  5
7
330
0
100
AcDbSymbolTable
 70
0
  0
ENDTAB
  0
TABLE
  2
UCS
  5
6
330
0
100
AcDbSymbolTable
 70
0
  0
ENDTAB
  0
TABLE
  2
APPID
  5
3
330
0
100
AcDbSymbolTable
 70
2
  0
APPID
  5
2A
330
3
100
AcDbSymbolTableRecord
100
AcDbRegAppTableRecord
  2
ACAD
 70
0
  0
APPID
  5
2D
330
3
100
AcDbSymbolTableRecord
100
AcDbRegAppTableRecord
  2
KENTOS
 70
0
  0
ENDTAB
  0
TABLE
  2
DIMSTYLE
  5
4
330
0
100
AcDbSymbolTable
 70
1
100
AcDbDimStyleTable
  0
DIMSTYLE
105
2B
330
4
100
AcDbSymbolTableRecord
100
AcDbDimStyleTableRecord
  2
Standard
 70
0
 40
1.0
 41
2.5
 42
0.625
 43
3.75
 44
1.25
 46
0.0
 47
0.0
 48
0.0
 49
2.5
140
2.5
141
2.5
142
0.0
143
0.03937007874
144
1.0
145
0.0
146
1.0
147
0.625
148
0.0
 69
0
 70
0
 71
0
 72
0
 73
0
 74
0
 75
0
 76
0
 77
1
 78
0
 79
0
170
0
171
3
172
1
173
0
174
0
175
0
176
0
177
0
178
0
179
2
271
2
272
2
273
2
274
3
275
0
276
0
277
2
278
46
279
0
280
0
281
0
282
0
283
0
284
8
285
0
286
0
288
0
289
3
290
0
371
-2
372
-2
  0
ENDTAB
  0
TABLE
  2
BLOCK_RECORD
  5
9
330
0
100
AcDbSymbolTable
 70
5
  0
BLOCK_RECORD
  5
17
330
9
100
AcDbSymbolTableRecord
100
AcDbBlockTableRecord
  2
*Model_Space
340
1A
 70
0
280
1
281
0
  0
BLOCK_RECORD
  5
1B
330
9
100
AcDbSymbolTableRecord
100
AcDbBlockTableRecord
  2
*Paper_Space
340
1E
 70
0
280
1
281
0
  0
BLOCK_RECORD
  5
2F
330
9
100
AcDbSymbolTableRecord
100
AcDbBlockTableRecord
  2
*U1
340
0
 70
0
280
1
281
0
  0
BLOCK_RECORD
  5
47
330
9
100
AcDbSymbolTableRecord
100
AcDbBlockTableRecord
  2
*U2
340
0
 70
0
280
1
281
0
  0
BLOCK_RECORD
  5
5C
330
9
100
AcDbSymbolTableRecord
100
AcDbBlockTableRecord
  2
*U3
340
0
 70
0
280
1
281
0
  0
ENDTAB
  0
ENDSEC
  0
SECTION
  2
BLOCKS
  0
BLOCK
  5
18
330
17
100
AcDbEntity
  8
0
100
AcDbBlockBegin
  2
*Model_Space
 70
0
 10
0.0
 20
0.0
 30
0.0
  3
*Model_Space
  1

  0
ENDBLK
  5
19
330
17
100
AcDbEntity
  8
0
100
AcDbBlockEnd
  0
BLOCK
  5
1C
330
1B
100
AcDbEntity
  8
0
100
AcDbBlockBegin
  2
*Paper_Space
 70
0
 10
0.0
 20
0.0
 30
0.0
  3
*Paper_Space
  1

  0
ENDBLK
  5
1D
330
1B
100
AcDbEntity
  8
0
100
AcDbBlockEnd
  0
BLOCK
  5
30
330
2F
100
AcDbEntity
  8
0
100
AcDbBlockBegin
  2
*U1
 70
1
 10
0.0
 20
0.0
 30
0.0
  3
*U1
  1

  0
LINE
  5
31
330
2F
100
AcDbEntity
  8
0
 62
0
100
AcDbLine
 10
0.0
 20
-5.0
 30
0.0
 11
62.0
 21
-5.0
 31
0.0
  0
LINE
  5
32
330
2F
100
AcDbEntity
  8
0
 62
0
100
AcDbLine
 10
0.0
 20
-10.0
 30
0.0
 11
62.0
 21
-10.0
 31
0.0
  0
LINE
  5
33
330
2F
100
AcDbEntity
  8
0
 62
0
100
AcDbLine
 10
0.0
 20
-15.0
 30
0.0
 11
62.0
 21
-15.0
 31
0.0
  0
LINE
  5
34
330
2F
100
AcDbEntity
  8
0
 62
0
100
AcDbLine
 10
0.0
 20
-20.0
 30
0.0
 11
62.0
 21
-20.0
 31
0.0
  0
SOLID
  5
35
330
2F
100
AcDbEntity
  8
0
 62
0
100
AcDbTrace
 10
0.0
 20
0.0
 30
0.0
 11
62.0
 21
0.0
 31
0.0
 12
0.0
 22
-0.5
 32
0.0
 13
62.0
 23
-0.5
 33
0.0
  0
SOLID
  5
36
330
2F
100
AcDbEntity
  8
0
 62
0
100
AcDbTrace
 10
0.0
 20
-24.5
 30
0.0
 11
62.0
 21
-24.5
 31
0.0
 12
0.0
 22
-25.0
 32
0.0
 13
62.0
 23
-25.0
 33
0.0
  0
SOLID
  5
37
330
2F
100
AcDbEntity
  8
0
 62
0
100
AcDbTrace
 10
0.0
 20
-0.5
 30
0.0
 11
0.5
 21
-0.5
 31
0.0
 12
0.0
 22
-24.5
 32
0.0
 13
0.5
 23
-24.5
 33
0.0
  0
SOLID
  5
38
330
2F
100
AcDbEntity
  8
0
 62
0
100
AcDbTrace
 10
61.5
 20
-0.5
 30
0.0
 11
62.0
 21
-0.5
 31
0.0
 12
61.5
 22
-24.5
 32
0.0
 13
62.0
 23
-24.5
 33
0.0
  0
TEXT
  5
39
330
2F
100
AcDbEntity
  8
0
 62
0
100
AcDbText
 10
1.25
 20
-3.375
 30
0.0
 40
2.5
  1
1043 ada parselleri
100
AcDbText
  0
TEXT
  5
3A
330
2F
100
AcDbEntity
  8
0
 62
0
100
AcDbText
 10
1.25
 20
-8.375
 30
0.0
 40
2.5
  1
Ad
100
AcDbText
  0
TEXT
  5
3B
330
2F
100
AcDbEntity
  8
0
 62
0
100
AcDbText
 10
28.285
 20
-8.375
 30
0.0
 40
2.5
  1
Alan (m²)
 72
2
 11
38.75
 21
-8.375
 31
0.0
100
AcDbText
  0
TEXT
  5
3C
330
2F
100
AcDbEntity
  8
0
 62
0
100
AcDbText
 10
49.4975
 20
-8.375
 30
0.0
 40
2.5
  1
Çevre (m)
 72
2
 11
60.75
 21
-8.375
 31
0.0
100
AcDbText
  0
TEXT
  5
3D
330
2F
100
AcDbEntity
  8
0
 62
0
100
AcDbText
 10
1.25
 20
-13.375
 30
0.0
 40
2.5
  1
7
100
AcDbText
  0
TEXT
  5
3E
330
2F
100
AcDbEntity
  8
0
 62
0
100
AcDbText
 10
31.105
 20
-13.375
 30
0.0
 40
2.5
  1
600.00
 72
2
 11
38.75
 21
-13.375
 31
0.0
100
AcDbText
  0
TEXT
  5
3F
330
2F
100
AcDbEntity
  8
0
 62
0
100
AcDbText
 10
51.715
 20
-13.375
 30
0.0
 40
2.5
  1
100.000
 72
2
 11
60.75
 21
-13.375
 31
0.0
100
AcDbText
  0
TEXT
  5
40
330
2F
100
AcDbEntity
  8
0
 62
0
100
AcDbText
 10
1.25
 20
-18.375
 30
0.0
 40
2.5
  1
8
100
AcDbText
  0
TEXT
  5
41
330
2F
100
AcDbEntity
  8
0
 62
0
100
AcDbText
 10
31.105
 20
-18.375
 30
0.0
 40
2.5
  1
400.00
 72
2
 11
38.75
 21
-18.375
 31
0.0
100
AcDbText
  0
TEXT
  5
42
330
2F
100
AcDbEntity
  8
0
 62
0
100
AcDbText
 10
53.105000000000004
 20
-18.375
 30
0.0
 40
2.5
  1
80.000
 72
2
 11
60.75
 21
-18.375
 31
0.0
100
AcDbText
  0
TEXT
  5
43
330
2F
100
AcDbEntity
  8
0
 62
0
100
AcDbText
 10
1.25
 20
-23.375
 30
0.0
 40
2.5
  1
Toplam
100
AcDbText
  0
TEXT
  5
44
330
2F
100
AcDbEntity
  8
0
 62
0
100
AcDbText
 10
29.715
 20
-23.375
 30
0.0
 40
2.5
  1
1000.00
 72
2
 11
38.75
 21
-23.375
 31
0.0
100
AcDbText
  0
ENDBLK
  5
45
330
2F
100
AcDbEntity
  8
0
100
AcDbBlockEnd
  0
BLOCK
  5
48
330
47
100
AcDbEntity
  8
0
100
AcDbBlockBegin
  2
*U2
 70
1
 10
0.0
 20
0.0
 30
0.0
  3
*U2
  1

  0
LINE
  5
49
330
47
100
AcDbEntity
  8
0
 62
0
100
AcDbLine
 10
0.0
 20
0.0
 30
0.0
 11
62.0
 21
0.0
 31
0.0
  0
LINE
  5
4A
330
47
100
AcDbEntity
  8
0
 62
0
100
AcDbLine
 10
0.0
 20
-4.0
 30
0.0
 11
62.0
 21
-4.0
 31
0.0
  0
LINE
  5
4B
330
47
100
AcDbEntity
  8
0
 62
0
100
AcDbLine
 10
0.0
 20
-8.0
 30
0.0
 11
62.0
 21
-8.0
 31
0.0
  0
LINE
  5
4C
330
47
100
AcDbEntity
  8
0
 62
0
100
AcDbLine
 10
0.0
 20
-12.0
 30
0.0
 11
62.0
 21
-12.0
 31
0.0
  0
LINE
  5
4D
330
47
100
AcDbEntity
  8
0
 62
0
100
AcDbLine
 10
0.0
 20
0.0
 30
0.0
 11
0.0
 21
-12.0
 31
0.0
  0
LINE
  5
4E
330
47
100
AcDbEntity
  8
0
 62
0
100
AcDbLine
 10
12.0
 20
0.0
 30
0.0
 11
12.0
 21
-12.0
 31
0.0
  0
LINE
  5
4F
330
47
100
AcDbEntity
  8
0
 62
0
100
AcDbLine
 10
37.0
 20
0.0
 30
0.0
 11
37.0
 21
-12.0
 31
0.0
  0
LINE
  5
50
330
47
100
AcDbEntity
  8
0
 62
0
100
AcDbLine
 10
62.0
 20
0.0
 30
0.0
 11
62.0
 21
-12.0
 31
0.0
  0
TEXT
  5
51
330
47
100
AcDbEntity
  8
0
 62
0
100
AcDbText
 10
3.333
 20
-2.7
 30
0.0
 40
2.0
  1
Nokta
 72
1
 11
6.0
 21
-2.7
 31
0.0
  7
KENTOS_ARIMO_B
100
AcDbText
  0
TEXT
  5
52
330
47
100
AcDbEntity
  8
0
 62
0
100
AcDbText
 10
23.833
 20
-2.7
 30
0.0
 40
2.0
  1
X
 72
1
 11
24.5
 21
-2.7
 31
0.0
  7
KENTOS_ARIMO_B
100
AcDbText
  0
TEXT
  5
53
330
47
100
AcDbEntity
  8
0
 62
0
100
AcDbText
 10
48.833
 20
-2.7
 30
0.0
 40
2.0
  1
Y
 72
1
 11
49.5
 21
-2.7
 31
0.0
  7
KENTOS_ARIMO_B
100
AcDbText
  0
TEXT
  5
54
330
47
100
AcDbEntity
  8
0
 62
0
100
AcDbText
 10
1.0
 20
-6.7
 30
0.0
 40
2.0
  1
101
  7
KENTOS_ARIMO_B
100
AcDbText
  0
TEXT
  5
55
330
47
100
AcDbEntity
  8
0
 62
0
100
AcDbText
 10
13.0
 20
-6.7
 30
0.0
 40
2.0
  1
452300.000
  7
KENTOS_ARIMO_B
100
AcDbText
  0
TEXT
  5
56
330
47
100
AcDbEntity
  8
0
 62
0
100
AcDbText
 10
38.0
 20
-6.7
 30
0.0
 40
2.0
  1
4412300.000
  7
KENTOS_ARIMO_B
100
AcDbText
  0
TEXT
  5
57
330
47
100
AcDbEntity
  8
0
 62
0
100
AcDbText
 10
1.0
 20
-10.7
 30
0.0
 40
2.0
  1
102
  7
KENTOS_ARIMO_B
100
AcDbText
  0
TEXT
  5
58
330
47
100
AcDbEntity
  8
0
 62
0
100
AcDbText
 10
13.0
 20
-10.7
 30
0.0
 40
2.0
  1
452330.000
  7
KENTOS_ARIMO_B
100
AcDbText
  0
TEXT
  5
59
330
47
100
AcDbEntity
  8
0
 62
0
100
AcDbText
 10
38.0
 20
-10.7
 30
0.0
 40
2.0
  1
4412300.000
  7
KENTOS_ARIMO_B
100
AcDbText
  0
ENDBLK
  5
5A
330
47
100
AcDbEntity
  8
0
100
AcDbBlockEnd
  0
BLOCK
  5
5D
330
5C
100
AcDbEntity
  8
0
100
AcDbBlockBegin
  2
*U3
 70
1
 10
0.0
 20
0.0
 30
0.0
  3
*U3
  1

  0
TEXT
  5
5E
330
5C
100
AcDbEntity
  8
0
 62
0
100
AcDbText
 10
1.25
 20
-3.375
 30
0.0
 40
2.5
  1
50%%%%%% ^  işaret
100
AcDbText
  0
TEXT
  5
5F
330
5C
100
AcDbEntity
  8
0
 62
0
100
AcDbText
 10
21.25
 20
-3.375
 30
0.0
 40
2.5
  1
tek satır
100
AcDbText
  0
TEXT
  5
60
330
5C
100
AcDbEntity
  8
0
 62
0
100
AcDbText
 10
21.25
 20
-8.375
 30
0.0
 40
2.5
  1
boş hücre solda
100
AcDbText
  0
ENDBLK
  5
61
330
5C
100
AcDbEntity
  8
0
100
AcDbBlockEnd
  0
ENDSEC
  0
SECTION
  2
ENTITIES
  0
LWPOLYLINE
  5
2E
330
17
100
AcDbEntity
  8
Parsel
100
AcDbPolyline
 90
4
 70
1
 10
452300.0
 20
4412300.0
 10
452330.0
 20
4412300.0
 10
452330.0
 20
4412320.0
 10
452300.0
 20
4412320.0
1001
KENTOS
1002
{
1000
label
1000
7
1002
}
1002
{
1000
attr
1000
Ada
1000
1043
1002
}
  0
INSERT
  5
46
330
17
100
AcDbEntity
  8
Tablolar
100
AcDbBlockReference
  2
*U1
 10
452340.5
 20
4412345.25
 30
0.0
1001
KENTOS
1002
{
1000
label
1000
T1
1002
}
1002
{
1000
attr
1000
Not
1000
çizelge
1002
}
1002
{
1000
table
1002
{
1000
{"aligns":["left","right","right"],"cells":[["1043 ada parselleri","",""],["Ad","Alan (m²)","Çevre (m)"],["7","600.00","100.000"],["8","400.00","80.000"],["Toplam","1000.00",""]],"columns":[18.0,22.0,22.0],"frame":0.5,"grid":"rows","height":2.5,"me
1000
rges":[{"col":0,"cols":3,"row":0,"rows":1}],"p":{"x":452340.5,"y":4412345.25},"rotation":0.0,"rows":[5.0,5.0,5.0,5.0,5.0],"source":{"kind":"areas","objects":["0192f5a0-7c3e-7d4a-9b1e-4c2f8a6d6001"]}}
1002
}
1002
}
  0
INSERT
  5
5B
330
17
100
AcDbEntity
  8
Tablolar
 62
13
420
15026253
100
AcDbBlockReference
  2
*U2
 10
452420.125
 20
4412345.25
 30
0.0
 50
30.0
1001
KENTOS
1002
{
1000
table
1002
{
1000
{"bold":true,"cells":[["Nokta","X","Y"],["101","452300.000","4412300.000"],["102","452330.000","4412300.000"]],"columns":[12.0,25.0,25.0],"font":"arimo","header":true,"height":2.0,"p":{"x":452420.125,"y":4412345.25},"rotation":30.0,"rows":[4.0,4.0,4.
1000
0],"source":{"kind":"file","name":"noktalar.xlsx","sheet":"Sayfa1"}}
1002
}
1002
}
  0
INSERT
  5
62
330
17
100
AcDbEntity
  8
Tablolar
100
AcDbBlockReference
  2
*U3
 10
452340.5
 20
4412300.0
 30
0.0
1001
KENTOS
1002
{
1000
table
1000
{"cells":[["50%% ^  işaret","tek satır"],["","boş hücre solda"]],"columns":[20.0,20.0],"grid":"none","height":2.5,"p":{"x":452340.5,"y":4412300.0},"rotation":0.0,"rows":[5.0,5.0]}
1002
}
  0
ENDSEC
  0
SECTION
  2
OBJECTS
  0
DICTIONARY
  5
A
330
0
100
AcDbDictionary
281
1
  3
ACAD_COLOR
350
B
  3
ACAD_GROUP
350
C
  3
ACAD_LAYOUT
350
D
  3
ACAD_MATERIAL
350
E
  3
ACAD_MLEADERSTYLE
350
F
  3
ACAD_MLINESTYLE
350
10
  3
ACAD_PLOTSETTINGS
350
11
  3
ACAD_PLOTSTYLENAME
350
12
  3
ACAD_SCALELIST
350
14
  3
ACAD_TABLESTYLE
350
15
  3
ACAD_VISUALSTYLE
350
16
  0
DICTIONARY
  5
B
330
A
100
AcDbDictionary
281
1
  0
DICTIONARY
  5
C
330
A
100
AcDbDictionary
281
1
  0
DICTIONARY
  5
D
330
A
100
AcDbDictionary
281
1
  3
Model
350
1A
  3
Layout1
350
1E
  0
DICTIONARY
  5
E
330
A
100
AcDbDictionary
281
1
  3
ByBlock
350
1F
  3
ByLayer
350
20
  3
Global
350
21
  0
DICTIONARY
  5
F
330
A
100
AcDbDictionary
281
1
  3
Standard
350
2C
  0
DICTIONARY
  5
10
330
A
100
AcDbDictionary
281
1
  3
Standard
350
22
  0
DICTIONARY
  5
11
330
A
100
AcDbDictionary
281
1
  0
ACDBDICTIONARYWDFLT
  5
12
330
A
100
AcDbDictionary
281
1
  3
Normal
350
13
100
AcDbDictionaryWithDefault
340
13
  0
ACDBPLACEHOLDER
  5
13
330
12
  0
DICTIONARY
  5
14
330
A
100
AcDbDictionary
281
1
  0
DICTIONARY
  5
15
330
A
100
AcDbDictionary
281
1
  0
DICTIONARY
  5
16
330
A
100
AcDbDictionary
281
1
  0
LAYOUT
  5
1A
330
D
100
AcDbPlotSettings
  1

  4
A3
  6

 40
7.5
 41
20.0
 42
7.5
 43
20.0
 44
420.0
 45
297.0
 46
0.0
 47
0.0
 48
0.0
 49
0.0
140
0.0
141
0.0
142
1.0
143
1.0
 70
1024
 72
1
 73
0
 74
5
  7

 75
16
 76
0
 77
2
 78
300
147
1.0
148
0.0
149
0.0
100
AcDbLayout
  1
Model
 70
1
 71
0
 10
0.0
 20
0.0
 11
420.0
 21
297.0
 12
0.0
 22
0.0
 32
0.0
 14
1.0E+20
 24
1.0E+20
 34
1.0E+20
 15
-1.0E+20
 25
-1.0E+20
 35
-1.0E+20
146
0.0
 13
0.0
 23
0.0
 33
0.0
 16
1.0
 26
0.0
 36
0.0
 17
0.0
 27
1.0
 37
0.0
 76
1
330
17
  0
LAYOUT
  5
1E
330
D
100
AcDbPlotSettings
  1

  4
A3
  6

 40
7.5
 41
20.0
 42
7.5
 43
20.0
 44
420.0
 45
297.0
 46
0.0
 47
0.0
 48
0.0
 49
0.0
140
0.0
141
0.0
142
1.0
143
1.0
 70
0
 72
1
 73
0
 74
5
  7

 75
16
 76
0
 77
2
 78
300
147
1.0
148
0.0
149
0.0
100
AcDbLayout
  1
Layout1
 70
1
 71
1
 10
0.0
 20
0.0
 11
420.0
 21
297.0
 12
0.0
 22
0.0
 32
0.0
 14
1.0E+20
 24
1.0E+20
 34
1.0E+20
 15
-1.0E+20
 25
-1.0E+20
 35
-1.0E+20
146
0.0
 13
0.0
 23
0.0
 33
0.0
 16
1.0
 26
0.0
 36
0.0
 17
0.0
 27
1.0
 37
0.0
 76
1
330
1B
  0
MATERIAL
  5
1F
102
{ACAD_REACTORS
330
E
102
}
330
E
100
AcDbMaterial
  1
ByBlock
  2

 70
0
 40
1.0
 71
1
 41
1.0
 91
-1023410177
 42
1.0
 72
1
  3

 73
1
 74
1
 75
1
 44
0.5
 73
0
 45
1.0
 46
1.0
 77
1
  4

 78
1
 79
1
170
1
 48
1.0
171
1
  6

172
1
173
1
174
1
140
1.0
141
1.0
175
1
  7

176
1
177
1
178
1
143
1.0
179
1
  8

270
1
271
1
272
1
145
1.0
146
1.0
273
1
  9

274
1
275
1
276
1
 42
1.0
 72
1
  3

 73
1
 74
1
 75
1
 94
63
  0
MATERIAL
  5
20
102
{ACAD_REACTORS
330
E
102
}
330
E
100
AcDbMaterial
  1
ByLayer
  2

 70
0
 40
1.0
 71
1
 41
1.0
 91
-1023410177
 42
1.0
 72
1
  3

 73
1
 74
1
 75
1
 44
0.5
 73
0
 45
1.0
 46
1.0
 77
1
  4

 78
1
 79
1
170
1
 48
1.0
171
1
  6

172
1
173
1
174
1
140
1.0
141
1.0
175
1
  7

176
1
177
1
178
1
143
1.0
179
1
  8

270
1
271
1
272
1
145
1.0
146
1.0
273
1
  9

274
1
275
1
276
1
 42
1.0
 72
1
  3

 73
1
 74
1
 75
1
 94
63
  0
MATERIAL
  5
21
102
{ACAD_REACTORS
330
E
102
}
330
E
100
AcDbMaterial
  1
Global
  2

 70
0
 40
1.0
 71
1
 41
1.0
 91
-1023410177
 42
1.0
 72
1
  3

 73
1
 74
1
 75
1
 44
0.5
 73
0
 45
1.0
 46
1.0
 77
1
  4

 78
1
 79
1
170
1
 48
1.0
171
1
  6

172
1
173
1
174
1
140
1.0
141
1.0
175
1
  7

176
1
177
1
178
1
143
1.0
179
1
  8

270
1
271
1
272
1
145
1.0
146
1.0
273
1
  9

274
1
275
1
276
1
 42
1.0
 72
1
  3

 73
1
 74
1
 75
1
 94
63
  0
MLINESTYLE
  5
22
102
{ACAD_REACTORS
330
10
102
}
330
10
100
AcDbMlineStyle
  2
Standard
 70
0
  3

 62
256
 51
90.0
 52
90.0
 71
2
 49
0.5
 62
256
  6
BYLAYER
 49
-0.5
 62
256
  6
BYLAYER
  0
MLEADERSTYLE
  5
2C
102
{ACAD_REACTORS
330
F
102
}
330
F
100
AcDbMLeaderStyle
179
2
170
2
171
1
172
0
 90
2
 40
0.0
 41
0.0
173
1
 91
-1056964608
 92
-2
290
1
 42
2.0
291
1
 43
8.0
  3
Standard
 44
4.0
300

342
29
174
1
175
1
176
0
178
1
 93
-1056964608
 45
4.0
292
0
297
0
 46
4.0
 94
-1056964608
 47
1.0
 49
1.0
140
1.0
294
1
141
0.0
177
0
142
1.0
295
0
296
0
143
3.75
271
0
272
9
273
9
  0
ENDSEC
  0
EOF
