50
500013.380 4400092.832 104.491 1924 45 36 169
500012.857 4400059.159 122.985 1489 113 123 201
500079.708 4400072.077 140.982 1342 175 229 42
500049.927 4400023.530 134.551 1010 194 138 9
500059.003 4400059.201 142.830 587 18 92 163
500060.149 4400080.220 102.733 1746 41 139 255
500071.217 4400088.669 124.860 1938 36 36 247
500002.868 4400086.733 101.702 444 62 223 91
500048.550 4400096.733 109.574 500 193 15 161
500014.792 4400012.875 142.294 645 222 86 162
500040.149 4400077.872 103.658 976 55 40 0
500092.821 4400046.707 129.394 528 127 133 20
500054.775 4400068.569 101.007 827 58 156 93
500007.042 4400027.714 115.435 2003 59 1 9
500054.274 4400001.457 146.638 753 163 29 216
500012.977 4400008.311 115.868 1927 142 64 163
500075.443 4400097.267 115.453 1030 41 83 127
500094.832 4400089.594 104.461 697 164 35 90
500097.944 4400030.342 138.734 1916 23 33 57
500062.188 4400042.994 108.633 892 80 232 101
500086.833 4400024.092 124.945 1584 27 233 145
500036.899 4400014.769 101.229 643 29 21 22
500014.574 4400085.750 101.102 2046 233 143 174
500051.139 4400067.336 141.956 1528 246 102 232
500044.373 4400007.665 100.391 1797 103 179 211
500066.284 4400020.221 123.315 81 17 187 206
500099.454 4400056.372 121.361 219 248 174 124
500027.530 4400090.143 106.360 138 36 196 119
500085.571 4400099.596 132.246 1088 206 12 88
500013.796 4400021.714 136.962 827 205 156 183
500034.774 4400061.148 149.250 2005 151 205 212
500078.803 4400003.307 109.782 501 194 169 68
500024.762 4400017.456 146.161 346 19 202 89
500067.036 4400020.076 103.096 1731 63 0 35
500045.899 4400044.200 107.063 618 9 99 75
500051.238 4400034.574 129.919 1519 127 146 73
500094.127 4400072.699 143.364 593 136 155 172
500081.673 4400046.890 144.787 1117 154 8 61
500083.917 4400033.901 136.998 166 203 159 75
500054.907 4400090.613 101.347 1354 91 237 188
500098.226 4400062.535 120.865 1875 95 74 33
500098.091 4400069.736 140.256 1417 204 161 106
500013.511 4400074.591 126.399 1800 177 141 136
500020.450 4400033.932 109.508 1599 172 195 132
500030.836 4400089.131 134.043 1161 105 65 77
500055.373 4400001.687 104.645 1899 250 47 24
500082.386 4400030.680 134.865 981 157 83 24
500048.362 4400015.982 100.898 306 140 191 7
500098.376 4400000.401 118.015 1138 124 39 147
500035.327 4400099.643 114.648 1282 204 205 200
