  0
SECTION
  2
HEADER
  9
$ACADVER
  1
AC1015
  9
$DWGCODEPAGE
  3
ANSI_1254
  9
$INSUNITS
 70
6
  0
ENDSEC
  0
SECTION
  2
BLOCKS
  0
BLOCK
  8
0
  2
ROGAR
 70
2
 10
0.0
 20
0.0
 30
0.0
  3
ROGAR
  0
CIRCLE
  8
0
 10
0.0
 20
0.0
 30
0.0
 40
0.75
  0
ATTDEF
  8
0
 10
0.9
 20
0.15
 30
0.0
 40
0.5
  1
R-?
  3
Rögar numarasý
  2
NO
 70
0
  0
ATTDEF
  8
0
 10
0.9
 20
-0.55
 30
0.0
 40
0.4
  1

  3
Kapak kotu
  2
KOT
 70
0
  0
ATTDEF
  8
0
 10
0.0
 20
-1.0
 30
0.0
 40
0.3
  1
x
  3
Gizli
  2
GIZLI
 70
1
  0
ATTDEF
  8
0
 10
-0.2
 20
-1.2
 30
0.0
 40
0.3
  1
SBT
  3

  2
SABIT
 70
2
  0
ATTDEF
  8
0
 10
0.0
 20
0.0
 30
0.0
 40
0.3
  1
MERKEZ
 72
1
 11
0.0
 21
1.2
 31
0.0
  3
Orta
  2
ORTA
 70
0
 74
0
  0
ATTDEF
  8
0
 10
0.0
 20
2.0
 30
0.0
 40
0.3
  1
dup
  3
again
  2
NO
 70
0
  0
ATTDEF
  8
0
 10
0.0
 20
3.0
 30
0.0
 40
0.3
  1
z
  3
bos
  2

 70
0
  0
ENDBLK
  8
0
  0
ENDSEC
  0
SECTION
  2
ENTITIES
  0
INSERT
  8
ALTYAPI
 66
1
  2
ROGAR
 10
487100.0
 20
4420200.0
 30
0.0
  0
ATTRIB
  8
ALTYAPI
 10
487100.9
 20
4420200.15
 30
0.0
 40
0.5
  1
R-12
  2
NO
 70
0
  0
ATTRIB
  8
ALTYAPI
 10
487100.9
 20
4420199.45
 30
0.0
 40
0.4
  1
101.35
  2
KOT
 70
0
  0
ATTRIB
  8
ALTYAPI
 10
487100.0
 20
4420199.0
 30
0.0
 40
0.3
  1
secret
  2
GIZLI
 70
1
  0
ATTRIB
  8
ALTYAPI
 10
487100.0
 20
4420202.0
 30
0.0
 40
0.3
  1
ekstra
  2
EK
 70
0
  0
SEQEND
  8
ALTYAPI
  0
INSERT
  8
ALTYAPI
  2
ROGAR
 10
487110.0
 20
4420200.0
 30
0.0
  0
TEXT
  8
0
 10
487130.0
 20
4420211.2
 30
0.0
 40
0.3
  1
MERKEZ
 72
1
 11
487130.0
 21
4420211.2
 31
0.0
 73
0
  0
ENDSEC
  0
EOF
