  0
SECTION
  2
HEADER
  9
$ACADVER
  1
AC1015
  9
$DWGCODEPAGE
  3
ANSI_1254
  9
$INSUNITS
 70
6
  0
ENDSEC
  0
SECTION
  2
BLOCKS
  0
BLOCK
  8
0
  2
NO
 70
0
 10
1.0
 20
1.0
 30
0.0
  3
NO
  0
CIRCLE
  8
0
 62
0
 10
1.0
 20
1.0
 30
0.0
 40
0.5
  0
LINE
  8
DETAY
 10
1.0
 20
1.0
 30
0.0
 11
2.0
 21
1.0
 31
0.0
  0
ATTDEF
  8
0
 10
1.0
 20
1.0
 30
0.0
 40
0.3
  1

  2
NO
  3
Numara
 70
0
  0
ENDBLK
  8
0
  0
BLOCK
  8
0
  2
KAPI
 70
0
 10
0.0
 20
0.0
 30
0.0
  3
KAPI
  0
INSERT
  8
0
  2
NO
 10
10.0
 20
0.0
 30
0.0
 41
2.0
 42
2.0
 43
1.0
 50
90.0
  0
POINT
  8
0
 10
3.0
 20
4.0
 30
1.5
  0
ENDBLK
  8
0
  0
BLOCK
  8
0
  2
DAIRE
 70
0
 10
0.0
 20
0.0
 30
0.0
  3
DAIRE
  0
CIRCLE
  8
0
 10
0.0
 20
0.0
 30
0.0
 40
1.0
  0
ENDBLK
  8
0
  0
BLOCK
  8
0
  2
KENDI
 70
0
 10
0.0
 20
0.0
 30
0.0
  3
KENDI
  0
INSERT
  8
0
  2
KENDI
 10
1.0
 20
0.0
 30
0.0
  0
ENDBLK
  8
0
  0
ENDSEC
  0
SECTION
  2
ENTITIES
  0
INSERT
  8
KAPILAR
 62
5
  2
KAPI
 10
1000.0
 20
2000.0
 30
100.0
 50
90.0
  0
INSERT
  8
DIZI
 66
1
  2
NO
 10
0.0
 20
0.0
 30
0.0
 70
2
 71
2
 44
10.0
 45
20.0
  0
ATTRIB
  8
DIZI
 10
0.5
 20
-1.0
 30
0.0
 40
0.4
  1
P-7
  2
NO
 70
0
  0
ATTRIB
  8
DIZI
 10
0.5
 20
-2.0
 30
0.0
 40
0.4
  1
gizli
  2
GIZ
 70
1
  0
SEQEND
  8
DIZI
  0
INSERT
  8
0
  2
DAIRE
 10
50.0
 20
50.0
 30
0.0
 41
3.0
 42
1.0
 43
1.0
  0
INSERT
  8
0
  2
KENDI
 10
0.0
 20
0.0
 30
0.0
  0
INSERT
  8
0
  2
YOK
 10
0.0
 20
0.0
 30
0.0
  0
ENDSEC
  0
EOF
