  0
SECTION
  2
HEADER
  9
$ACADVER
  1
AC1015
  9
$DWGCODEPAGE
  3
ANSI_1254
  9
$INSUNITS
 70
6
  0
ENDSEC
  0
SECTION
  2
BLOCKS
  0
BLOCK
  8
0
  2
*D1
 70
1
 10
0.0
 20
0.0
 30
0.0
  3
*D1
  0
LINE
  8
0
 10
0.0
 20
5.0
 30
0.0
 11
10.0
 21
5.0
 31
0.0
  0
SOLID
  8
0
 10
0.0
 20
5.0
 30
0.0
 11
0.5
 21
5.1
 31
0.0
 12
0.5
 22
4.9
 32
0.0
 13
0.5
 23
4.9
 33
0.0
  0
MTEXT
  8
0
 10
5.0
 20
5.5
 30
0.0
 40
0.5
 71
8
  1
10.00
  0
POINT
  8
DEFPOINTS
 10
0.0
 20
0.0
 30
0.0
  0
ENDBLK
  8
0
  0
ENDSEC
  0
SECTION
  2
ENTITIES
  0
DIMENSION
  8
OLCU
  2
*D1
 10
10.0
 20
5.0
 30
0.0
 11
5.0
 21
5.5
 31
0.0
 70
33
 13
0.0
 23
0.0
 33
0.0
 14
10.0
 24
0.0
 34
0.0
  0
DIMENSION
  8
OLCU
  2
*D9
 10
10.0
 20
5.0
 30
0.0
 70
33
  0
ENDSEC
  0
EOF
