  0
SECTION
  2
HEADER
  9
$ACADVER
  1
AC1021
  9
$INSUNITS
 70
6
  0
ENDSEC
  0
SECTION
  2
TABLES
  0
TABLE
  2
DIMSTYLE
 70
1
  0
DIMSTYLE
  2
Standard
 70
0
 40
1.5
140
2.0
  0
ENDTAB
  0
ENDSEC
  0
SECTION
  2
BLOCKS
  0
BLOCK
  8
0
  2
*D1
 70
1
 10
0.0
 20
0.0
 30
0.0
  3
*D1
  0
LINE
  8
0
 10
452310.0
 20
4412321.0
 30
0.0
 11
452310.0
 21
4412345.0
 31
0.0
  0
MTEXT
  8
0
 10
452310.0
 20
4412347.5
 30
0.0
 40
3.0
 71
5
  1
452310.00
  0
ENDBLK
  8
0
  0
BLOCK
  8
0
  2
*D2
 70
1
 10
0.0
 20
0.0
 30
0.0
  3
*D2
  0
LINE
  8
0
 10
452309.0
 20
4412320.0
 30
0.0
 11
452275.0
 21
4412320.0
 31
0.0
  0
MTEXT
  8
0
 10
452264.0
 20
4412320.0
 30
0.0
 40
3.0
 71
5
  1
X=4412320.00
  0
ENDBLK
  8
0
  0
BLOCK
  8
0
  2
*D3
 70
1
 10
0.0
 20
0.0
 30
0.0
  3
*D3
  0
LINE
  8
0
 10
452299.0
 20
4412285.0
 30
0.0
 11
452280.0
 21
4412285.0
 31
0.0
  0
MTEXT
  8
0
 10
452274.0
 20
4412285.0
 30
0.0
 40
3.0
 71
5
  1
285.00
  0
ENDBLK
  8
0
  0
BLOCK
  8
0
  2
*D4
 70
1
 10
0.0
 20
0.0
 30
0.0
  3
*D4
  0
LINE
  8
0
 10
452360.0
 20
4412300.0
 30
0.0
 11
452363.0
 21
4412300.0
 31
0.0
  0
MTEXT
  8
0
 10
452360.7
 20
4412310.7
 30
0.0
 40
3.0
 71
5
  1
15.71
  0
ENDBLK
  8
0
  0
BLOCK
  8
0
  2
*D5
 70
1
 10
0.0
 20
0.0
 30
0.0
  3
*D5
  0
LINE
  8
0
 10
452465.584951
 20
4412288.964585
 30
0.0
 11
452475.244432
 21
4412306.732377
 31
0.0
  0
MTEXT
  8
0
 10
452471.7
 20
4412303.2
 30
0.0
 40
3.0
 71
5
  1
R220.00
  0
ENDBLK
  8
0
  0
BLOCK
  8
0
  2
*D6
 70
1
 10
0.0
 20
0.0
 30
0.0
  3
*D6
  0
LINE
  8
0
 10
452380.0
 20
4412330.0
 30
0.0
 11
452380.0
 21
4412333.0
 31
0.0
  0
LINE
  8
0
 10
452420.0
 20
4412330.0
 30
0.0
 11
452420.0
 21
4412333.0
 31
0.0
  0
LINE
  8
0
 10
452380.0
 20
4412333.0
 30
0.0
 11
452420.0
 21
4412333.0
 31
0.0
  0
MTEXT
  8
0
 10
452400.0
 20
4412335.0
 30
0.0
 40
3.0
 71
5
  1
40.00
  0
ENDBLK
  8
0
  0
ENDSEC
  0
SECTION
  2
ENTITIES
  0
DIMENSION
  8
OLCU
100
AcDbEntity
100
AcDbDimension
  2
*D1
 10
0.0
 20
0.0
 30
0.0
 11
452310.0
 21
4412347.5
 31
0.0
 70
102
  1

  3
Standard
100
AcDbOrdinateDimension
 13
452310.0
 23
4412320.0
 33
0.0
 14
452310.0
 24
4412345.0
 34
0.0
  0
DIMENSION
  8
OLCU
100
AcDbEntity
100
AcDbDimension
  2
*D2
 10
0.0
 20
0.0
 30
0.0
 11
452264.0
 21
4412320.0
 31
0.0
 70
38
  1
X=4412320.00
  3
Standard
100
AcDbOrdinateDimension
 13
452310.0
 23
4412320.0
 33
0.0
 14
452275.0
 24
4412320.0
 34
0.0
  0
DIMENSION
  8
OLCU
100
AcDbEntity
100
AcDbDimension
  2
*D3
 10
452000.0
 20
4412000.0
 30
0.0
 11
452274.0
 21
4412285.0
 31
0.0
 70
38
  1

  3
Standard
100
AcDbOrdinateDimension
 13
452300.0
 23
4412285.0
 33
0.0
 14
452280.0
 24
4412285.0
 34
0.0
  0
ARC_DIMENSION
  8
OLCU
100
AcDbEntity
100
AcDbDimension
  2
*D4
 10
452359.19238815544
 20
4412309.1923881555
 30
0.0
 11
452360.6949900655
 21
4412310.694990065
 31
0.0
 70
37
  1

  3
Standard
100
AcDbArcDimension
 13
452360.0
 23
4412300.0
 33
0.0
 14
452350.0
 24
4412310.0
 34
0.0
 15
452350.0
 25
4412300.0
 35
0.0
 70
0
 40
0.0
 41
1.5707963267948966
 71
0
1001
ACAD
1000
DSTYLE
1002
{
1070
69
1070
1
1002
}
  0
LARGE_RADIAL_DIMENSION
  8
OLCU
100
AcDbEntity
100
AcDbDimension
  2
*D5
 10
452400.0
 20
4412100.0
 30
0.0
 11
452471.7084945504
 21
4412303.230553068
 31
0.0
 70
41
  1
R<>
  3
Standard
100
AcDbRadialDimensionLarge
 13
452465.584951
 23
4412288.964585
 33
0.0
 14
452470.24368144694
 24
4412297.378634742
 34
0.0
 15
452475.244432
 25
4412306.732377
 35
0.0
 40
0.0
1001
ACAD
1000
DSTYLE
1002
{
1070
50
1040
0.7853981633974483
1002
}
  0
DIMENSION
  8
OLCU
100
AcDbEntity
100
AcDbDimension
  2
*D6
 10
452420.0
 20
4412333.0
 30
0.0
 11
452400.0
 21
4412335.0
 31
0.0
 70
33
  1

  3
Standard
100
AcDbAlignedDimension
 13
452380.0
 23
4412330.0
 33
0.0
 14
452420.0
 24
4412330.0
 34
0.0
  0
ENDSEC
  0
EOF
