  0
SECTION
  2
HEADER
  9
$ACADVER
  1
AC1015
  9
$DWGCODEPAGE
  3
ANSI_1254
  9
$INSUNITS
 70
6
  0
ENDSEC
  0
SECTION
  2
TABLES
  0
TABLE
  2
LTYPE
 70
2
  0
LTYPE
  2
CONTINUOUS
 70
0
  3
Solid line
 72
65
 73
0
 40
0.0
  0
LTYPE
  2
KESIK
 70
0
  3
__ __
 72
65
 73
2
 40
1.5
 49
1.0
 49
-0.5
  0
ENDTAB
  0
TABLE
  2
LAYER
 70
5
  0
LAYER
  2
0
 70
0
 62
7
  6
CONTINUOUS
370
-3
  0
LAYER
  2
PARSEL
 70
0
 62
1
  6
CONTINUOUS
370
35
  0
LAYER
  2
Yol ekseni
 70
0
 62
-5
  6
KESIK
370
-3
  0
LAYER
  2
Kot
 70
4
 62
3
  6
CONTINUOUS
370
-3
  0
LAYER
  2
Yazý
 70
1
 62
6
  6
CONTINUOUS
370
-3
  0
ENDTAB
  0
ENDSEC
  0
SECTION
  2
ENTITIES
  0
LINE
  8
PARSEL
 10
452000.125
 20
4412000.5
 30
0.0
 11
452010.25
 21
4412005.75
 31
0.0
  0
LWPOLYLINE
  8
PARSEL
 90
4
 70
1
 10
452000.0
 20
4412000.0
 10
452020.0
 20
4412000.0
 42
0.5
 10
452020.0
 20
4412010.0
 10
452000.0
 20
4412010.0
  0
LWPOLYLINE
  8
Yol ekseni
 90
3
 70
0
 43
0.5
 10
1.0
 20
1.0
 42
-1.0
 10
3.0
 20
1.0
 10
5.0
 20
2.0
  0
POLYLINE
  8
Yol ekseni
 66
1
 10
0.0
 20
0.0
 30
0.0
 70
0
  0
VERTEX
  8
Yol ekseni
 10
0.0
 20
0.0
 30
0.0
 42
1.0
  0
VERTEX
  8
Yol ekseni
 10
4.0
 20
0.0
 30
0.0
  0
VERTEX
  8
Yol ekseni
 10
4.0
 20
4.0
 30
0.0
  0
SEQEND
  8
Yol ekseni
  0
CIRCLE
  8
0
 62
1
 10
100.0
 20
200.0
 30
0.0
 40
2.5
  0
ARC
  8
0
 10
100.0
 20
200.0
 30
0.0
 40
5.0
 50
30.0
 51
120.0
  0
ELLIPSE
  8
0
 10
50.0
 20
60.0
 30
0.0
 11
10.0
 21
0.0
 31
0.0
 40
0.5
 41
0.0
 42
3.141592653589793
  0
SPLINE
  8
0
 70
8
 71
3
 72
0
 73
0
 74
4
 11
0.0
 21
0.0
 31
0.0
 11
10.0
 21
5.0
 31
0.0
 11
20.0
 21
0.0
 31
0.0
 11
30.0
 21
5.0
 31
0.0
  0
SPLINE
  8
0
 70
8
 71
2
 72
6
 73
3
 74
0
 40
0.0
 40
0.0
 40
0.0
 40
1.0
 40
1.0
 40
1.0
 10
0.0
 20
0.0
 30
0.0
 10
1.0
 20
2.0
 30
0.0
 10
2.0
 20
0.0
 30
0.0
  0
POINT
  8
Kot
 10
452001.0
 20
4412001.0
 30
105.25
  0
POINT
  8
Kot
 10
452002.0
 20
4412002.0
 30
0.0
  0
TEXT
  8
Yazý
 62
3
 10
452005.0
 20
4412005.0
 30
0.0
 40
2.5
  1
Ada 101 %%c20 Ýþ
 50
30.0
  0
MTEXT
  8
Yazý
 10
10.0
 20
20.0
 30
0.0
 40
2.0
 71
1
  1
{\fArial|b1;Birinci satýr}\PIkinci\~satýr
  0
SOLID
  8
0
 10
0.0
 20
0.0
 30
0.0
 11
1.0
 21
0.0
 31
0.0
 12
0.0
 22
1.0
 32
0.0
 13
1.0
 23
1.0
 33
0.0
  0
XLINE
  8
0
 10
5.0
 20
5.0
 30
0.0
 11
0.0
 21
1.0
 31
0.0
  0
RAY
  8
0
 10
5.0
 20
5.0
 30
0.0
 11
0.6
 21
0.8
 31
0.0
  0
IMAGE
  8
0
 10
0.0
 20
0.0
 30
0.0
  0
LINE
  8
0
 67
1
 10
0.0
 20
0.0
 30
0.0
 11
1.0
 21
1.0
 31
0.0
  0
ENDSEC
  0
EOF
