  0
SECTION
  2
HEADER
  9
$ACADVER
  1
AC1015
  9
$DWGCODEPAGE
  3
ANSI_1254
  9
$INSUNITS
 70
6
  0
ENDSEC
  0
SECTION
  2
ENTITIES
  0
HATCH
  8
TARAMA
100
AcDbEntity
100
AcDbHatch
 10
0.0
 20
0.0
 30
0.0
210
0.0
220
0.0
230
1.0
  2
ANSI31
 70
0
 71
0
 91
2
 92
3
 72
0
 73
1
 93
4
 10
0.0
 20
0.0
 10
10.0
 20
0.0
 10
10.0
 20
10.0
 10
0.0
 20
10.0
 97
0
 92
0
 93
4
 72
1
 10
3.0
 20
3.0
 11
7.0
 21
3.0
 72
1
 10
7.0
 20
3.0
 11
7.0
 21
7.0
 72
2
 10
5.0
 20
7.0
 40
2.0
 50
360.0
 51
180.0
 73
0
 72
1
 10
3.0
 20
7.0
 11
3.0
 21
3.0
 97
0
 75
0
 76
1
 52
0.0
 41
1.0
 77
0
 78
1
 53
45.0
 43
0.0
 44
0.0
 45
-2.2450640303
 46
2.2450640303
 79
0
 98
0
  0
HATCH
  8
TARAMA
100
AcDbEntity
100
AcDbHatch
 10
0.0
 20
0.0
 30
0.0
210
0.0
220
0.0
230
1.0
  2
SOLID
 70
1
 71
0
 91
1
 92
3
 72
1
 73
1
 93
2
 10
20.0
 20
0.0
 42
1.0
 10
24.0
 20
0.0
 42
1.0
 97
0
 75
0
 76
1
 98
0
  0
HATCH
  8
TARAMA
100
AcDbEntity
100
AcDbHatch
 10
0.0
 20
0.0
 30
0.0
210
0.0
220
0.0
230
1.0
  2
NET
 70
0
 71
0
 91
1
 92
3
 72
0
 73
1
 93
3
 10
30.0
 20
0.0
 10
40.0
 20
0.0
 10
35.0
 20
8.0
 97
0
 75
1
 76
1
 52
0.0
 41
1.0
 77
0
 78
2
 53
0.0
 43
0.0
 44
0.0
 45
0.0
 46
3.175
 79
0
 53
90.0
 43
0.0
 44
0.0
 45
-3.175
 46
0.0
 79
0
 98
0
  0
ENDSEC
  0
EOF
