  0
SECTION
  2
HEADER
  9
$ACADVER
  1
AC1018
  9
$INSUNITS
 70
6
  0
ENDSEC
  0
SECTION
  2
ENTITIES
  0
HATCH
  8
TARAMA
100
AcDbEntity
100
AcDbHatch
 10
0.0
 20
0.0
 30
0.0
210
0.0
220
0.0
230
1.0
  2
ANSI36
 70
0
 71
0
 91
1
 92
3
 72
0
 73
1
 93
4
 10
0.0
 20
0.0
 10
10.0
 20
0.0
 10
10.0
 20
10.0
 10
0.0
 20
10.0
 97
0
 75
0
 76
1
 52
30.0
 41
2.0
 77
0
 78
1
 53
75.0
 43
0.0
 44
0.0
 45
-1.0505758999197394
 46
10.799906956937539
 79
4
 49
15.875
 49
-3.175
 49
0.0
 49
-3.175
 98
0
  0
HATCH
  8
TARAMA
100
AcDbEntity
100
AcDbHatch
 10
0.0
 20
0.0
 30
0.0
210
0.0
220
0.0
230
1.0
  2
KAROLAJ
 70
0
 71
0
 91
1
 92
3
 72
0
 73
1
 93
4
 10
20.0
 20
0.0
 10
30.0
 20
0.0
 10
30.0
 20
10.0
 10
20.0
 20
10.0
 97
0
 75
0
 76
2
 52
0.0
 41
0.5
 77
0
 78
2
 53
0.0
 43
0.0
 44
0.0
 45
0.0
 46
5.0
 79
0
 53
90.0
 43
1.0
 44
0.0
 45
-5.0
 46
0.0
 79
2
 49
5.0
 49
-5.0
 98
0
  0
HATCH
  8
TARAMA
100
AcDbEntity
100
AcDbHatch
 10
0.0
 20
0.0
 30
0.0
210
0.0
220
0.0
230
1.0
  2
SOLID
 70
1
 71
0
 91
1
 92
3
 72
0
 73
1
 93
4
 10
40.0
 20
0.0
 10
50.0
 20
0.0
 10
50.0
 20
10.0
 10
40.0
 20
10.0
 97
0
 75
0
 76
1
 98
0
450
1
451
0
460
0.0
461
0.0
452
0
462
1.0
453
2
463
0.0
 63
1
421
16711680
463
1.0
 63
151
421
8368869
470
SPHERICAL
  0
HATCH
  8
TARAMA
100
AcDbEntity
100
AcDbHatch
 10
0.0
 20
0.0
 30
0.0
210
0.0
220
0.0
230
1.0
  2
SOLID
 70
1
 71
0
 91
1
 92
3
 72
0
 73
1
 93
4
 10
60.0
 20
0.0
 10
70.0
 20
0.0
 10
70.0
 20
10.0
 10
60.0
 20
10.0
 97
0
 75
0
 76
1
 98
0
450
1
451
0
460
0.5235987755982988
461
0.0
452
0
462
1.0
453
2
463
0.0
 63
5
421
255
463
1.0
 63
7
421
16777215
470
INVCURVED
  0
HATCH
  8
TARAMA
100
AcDbEntity
100
AcDbHatch
 10
0.0
 20
0.0
 30
0.0
210
0.0
220
0.0
230
1.0
  2
ANSI31
 70
0
 71
1
 91
1
 92
3
 72
0
 73
1
 93
4
 10
80.0
 20
0.0
 10
90.0
 20
0.0
 10
90.0
 20
10.0
 10
80.0
 20
10.0
 97
0
 75
0
 76
1
 52
0.0
 41
1.0
 77
0
 78
1
 53
45.0
 43
0.0
 44
0.0
 45
-2.245064030267288
 46
2.2450640302672884
 79
0
 98
0
  0
HATCH
  8
TARAMA
100
AcDbEntity
100
AcDbHatch
 10
0.0
 20
0.0
 30
0.0
210
0.0
220
0.0
230
1.0
  2
LINE
 70
0
 71
0
 91
1
 92
3
 72
0
 73
1
 93
4
 10
100.0
 20
0.0
 10
110.0
 20
0.0
 10
110.0
 20
10.0
 10
100.0
 20
10.0
 97
0
 75
0
 76
1
 52
0.0
 41
2.0
 77
0
 78
0
 98
0
  0
HATCH
  8
TARAMA
100
AcDbEntity
100
AcDbHatch
 10
0.0
 20
0.0
 30
0.0
210
0.0
220
0.0
230
1.0
  2
_USER
 70
0
 71
0
 91
1
 92
3
 72
0
 73
1
 93
4
 10
120.0
 20
0.0
 10
130.0
 20
0.0
 10
130.0
 20
10.0
 10
120.0
 20
10.0
 97
0
 75
0
 76
0
 52
15.0
 41
1.0
 77
1
 78
2
 53
15.0
 43
0.0
 44
0.0
 45
-0.6470476127563018
 46
2.4148145657226707
 79
0
 53
105.0
 43
0.0
 44
0.0
 45
-2.4148145657226707
 46
-0.6470476127563021
 79
0
 98
0
  0
HATCH
  8
TARAMA
100
AcDbEntity
100
AcDbHatch
 10
0.0
 20
0.0
 30
0.0
210
0.0
220
0.0
230
-1.0
  2
TUGLA
 70
0
 71
0
 91
1
 92
3
 72
0
 73
1
 93
4
 10
140.0
 20
0.0
 10
150.0
 20
0.0
 10
150.0
 20
10.0
 10
140.0
 20
10.0
 97
0
 75
0
 76
2
 52
10.0
 41
1.0
 77
0
 78
2
 53
10.0
 43
0.0
 44
0.0
 45
-1.1026659281850075
 46
6.25352923162752
 79
0
 53
100.0
 43
0.0
 44
0.0
 45
-7.356195159812527
 46
5.150863303442513
 79
2
 49
6.35
 49
-6.35
 98
0
  0
ENDSEC
  0
EOF
