  0
SECTION
  2
HEADER
  9
$ACADVER
  1
AC1015
  9
$DWGCODEPAGE
  3
ANSI_1254
  9
$INSUNITS
 70
6
  0
ENDSEC
  0
SECTION
  2
ENTITIES
  0
ARC
  8
0
 10
10.0
 20
5.0
 30
0.0
 40
2.0
 50
0.0
 51
90.0
210
0.0
220
0.0
230
-1.0
  0
CIRCLE
  8
0
 10
10.0
 20
5.0
 30
0.0
 40
3.0
210
0.0
220
0.0
230
-1.0
  0
LWPOLYLINE
  8
0
 90
2
 70
0
 10
1.0
 20
0.0
 42
1.0
 10
3.0
 20
0.0
210
0.0
220
0.0
230
-1.0
  0
TEXT
  8
0
 10
4.0
 20
1.0
 30
0.0
 40
1.0
  1
ters
 50
0.0
210
0.0
220
0.0
230
-1.0
  0
ELLIPSE
  8
0
 10
0.0
 20
0.0
 30
0.0
 11
2.0
 21
0.0
 31
0.0
 40
0.5
 41
0.0
 42
1.5707963267948966
210
0.0
220
0.0
230
-1.0
  0
ENDSEC
  0
EOF
