  0
SECTION
  2
HEADER
  9
$ACADVER
  1
AC1015
  9
$INSUNITS
 70
1
  0
ENDSEC
  0
SECTION
  2
TABLES
  0
TABLE
  2
LAYER
  0
LAYER
  2
0
 70
0
 62
7
  6
CONTINUOUS
  0
LAYER
  2
PARCA
 70
0
 62
1
  6
CONTINUOUS
  0
ENDTAB
  0
ENDSEC
  0
SECTION
  2
BLOCKS
  0
BLOCK
  8
0
  2
PIM
 70
0
 10
1
 20
1
 30
0
  0
CIRCLE
  8
0
 10
1
 20
1
 30
0
 40
0.25
  0
LINE
  8
0
 10
0.5
 20
1
 30
0
 11
1.5
 21
1
 31
0
  0
ENDBLK
  8
0
  0
ENDSEC
  0
SECTION
  2
ENTITIES
  0
LINE
  8
PARCA
 10
0
 20
0
 30
2
 11
10
 21
0
 31
2
  0
CIRCLE
  8
PARCA
 10
5
 20
4
 30
0
 40
2
  0
ARC
  8
PARCA
 10
5
 20
4
 30
0
 40
3
 50
0
 51
90
  0
TEXT
  8
PARCA
 10
1
 20
6
 30
0
 40
0.5
  1
PIM
  0
LWPOLYLINE
  8
PARCA
 90
4
 70
1
 10
0
 20
0
 10
10
 20
0
 10
10
 20
8
 10
0
 20
8
  0
INSERT
  8
PARCA
  2
PIM
 10
3
 20
4
 30
0
 41
2
 42
2
 43
2
  0
ENDSEC
  0
EOF
